<svg width="1728" height="838" viewBox="0 0 1728 838" fill="none" xmlns="http://www.w3.org/2000/svg">
    <path d="M0 0H1728V838H0V0Z" fill="url(#paint0_linear_47_142)"/>
    <path opacity="0.92" fill-rule="evenodd" clip-rule="evenodd" d="M957.521 -30.9831C944.555 -28.759 931.59 -26.535 918.624 -24.3109C734.93 57.5336 551.396 140.608 368.019 224.913C348.937 232.917 329.1 237.533 308.511 238.762C299.888 236.281 294.061 230.604 291.029 221.731C267.583 216.368 257.011 225.465 259.308 249.023C184.557 243.683 109.724 238.918 34.8027 234.727C13.8269 235.444 -5.90905 240.65 -24.4018 250.345C-23.795 253.883 -23.1882 257.421 -22.5813 260.959C48.0507 266.312 118.742 268.146 189.495 266.461C195.63 268.549 201.93 269.897 208.389 270.504C201.519 272.896 194.649 275.289 187.779 277.681C-66.7589 328.465 -321.832 376.468 -577.445 421.689C-575.96 429.053 -571.513 433.753 -564.106 435.789C-362.721 403.049 -162.053 366.807 37.9004 327.062C43.3699 327.922 48.8765 328.191 54.42 327.87C100.639 310.148 148.463 298.91 197.886 294.156C126.522 321.507 54.3867 346.626 -18.521 369.516C-17.9142 373.054 -17.3073 376.592 -16.7005 380.129C9.35942 376.265 35.1891 371.227 60.7918 365.016C123.488 341.933 186.395 319.611 249.516 298.046C250.365 310.506 256.595 318.541 268.212 322.153C247.972 338.154 226.015 351.632 202.343 362.586C190.359 376.354 177.347 388.905 163.299 400.238C164.932 417.991 164.919 435.595 163.258 453.052C158.257 455.73 153.256 458.409 148.256 461.088C141.15 458.286 134.935 453.89 129.612 447.898C125.967 446.765 122.329 446.781 118.7 447.948C120.696 456.08 124.365 463.341 129.717 469.73C104.063 486.699 77.6952 502.755 50.6138 517.896C40.7735 508.958 30.3147 501.039 19.2378 494.144C17.6721 495.626 16.1065 497.11 14.5404 498.592C20.6809 508.074 27.1179 517.291 33.8432 526.236C-22.6864 560.143 -79.4438 593.551 -136.436 626.46C-166.473 598.694 -196.202 570.409 -225.616 541.607C-242.312 547.745 -259.69 552.547 -277.748 556.012C-273.592 519.655 -272.588 483.064 -274.736 446.242C-277.276 426.805 -287.954 414.069 -306.771 408.035C-301.107 456.862 -295.76 505.716 -290.731 554.598C-296.182 559.451 -302.562 561.154 -309.877 559.703C-325.494 548.301 -342.536 540.905 -361.005 537.518C-360.313 549.889 -356.037 560.687 -348.168 569.913C-330.504 572.236 -312.993 575.3 -295.627 579.109C-290.22 583.317 -285.183 587.915 -280.52 592.906C-263.318 632.728 -245.04 672.078 -225.687 710.963C-218.583 713.645 -214.862 710.578 -214.524 701.765C-213.554 690.932 -215.864 681.007 -221.45 671.998C-210.972 668.886 -200.667 665.297 -190.535 661.232C-185.111 660.407 -180.579 662.059 -176.945 666.184C-164.383 690.713 -146.463 696.139 -123.191 682.456C-110.5 707.673 -100.543 733.887 -93.3206 761.094C-89.7844 760.487 -86.2482 759.881 -82.7121 759.274C-80.6792 726.772 -74.5376 695.368 -64.2894 665.069C-39.8369 655.824 -15.3021 646.76 9.31083 637.877C12.7075 637.688 15.8552 638.36 18.7581 639.898C20.8334 646.203 24.6928 651.004 30.3293 654.302C50.835 652.161 70.5711 646.954 89.5338 638.683C90.1407 642.221 90.7475 645.759 91.3543 649.296C65.2723 651.822 41.2273 660.196 19.2188 674.416C15.8158 677.455 14.0641 681.397 13.967 686.243C16.6773 697.905 22.5197 707.22 31.5017 714.19C53.0925 704.03 75.5715 697.137 98.9398 693.518C65.2229 714.011 64.1466 736.046 95.7182 759.623C120.052 757.306 142.33 749.238 162.549 735.413C164.147 745.132 163.407 754.971 160.332 764.927C143.76 753.203 129.615 755.629 117.898 772.206C115.467 805.421 127.778 831.228 154.84 849.631C163.09 848.216 171.343 846.8 179.593 845.385C182.426 840.591 184.566 835.369 186.006 829.718C185.243 815.463 185.866 801.394 187.868 787.518C213.73 768.514 239.592 749.511 265.454 730.507C282.776 724.131 300.17 722.968 317.639 727.019C328.516 721.78 338.316 715.245 347.037 707.409C402.56 710.35 458.111 712.352 513.698 713.418C516.574 730.252 524.896 743.392 538.66 752.837C555.049 755.045 566.718 748.797 573.666 734.087C577.526 739.929 582.559 744.528 588.774 747.883C606.467 742.929 623.946 738.718 641.209 735.247C656.747 709.493 652.418 687.776 628.215 670.103C623.555 653.083 617.187 637.179 609.11 622.394C618.714 629.444 629.339 631.263 640.988 627.852C673.642 617.673 705.537 605.526 736.663 591.41C750.832 577.942 753.119 562.982 743.526 546.532C772.091 517.206 779.107 483.831 764.575 446.413C737.122 413.087 706.993 382.446 674.182 354.486C662.007 349.68 649.412 346.985 636.393 346.401C606.216 347.806 576.041 348.733 545.865 349.183C554.287 325.514 547.615 307.843 525.85 296.168C491.028 297.759 456.237 300.085 421.481 303.146C412.624 301.023 405.718 296.138 400.766 288.49C397.027 287.917 393.289 287.344 389.55 286.772C370.642 290.011 351.865 290.197 333.223 287.329C330.127 289.337 328.173 292.1 327.364 295.618C324.626 290.137 323.027 284.341 322.562 278.233C327.276 277.424 331.993 276.615 336.707 275.806C336.1 272.269 335.493 268.731 334.886 265.193C588.985 204.614 843.115 144.027 1097.27 83.4329C1096.67 79.8952 1096.06 76.3575 1095.45 72.8198C1052.47 76.1704 1009.93 82.8596 967.849 92.8875C780.259 138.268 592.506 182.613 404.594 225.923C587.935 142.933 771.571 60.4483 955.502 -21.5323C957.756 -24.3616 958.429 -27.512 957.521 -30.9831ZM311.347 276.515C307.81 277.121 304.274 277.728 300.738 278.334C311.208 299.351 314.745 298.744 311.347 276.515ZM388.138 299.76C378.315 301.003 371.951 306.343 369.045 315.782C379.756 317.126 388.981 314.33 396.728 307.392C393.182 305.42 390.322 302.876 388.138 299.76ZM264.897 430.154C277.836 413.23 282.461 394.227 278.779 373.146C268.624 390.727 263.996 409.73 264.897 430.154ZM672.769 367.474C670.886 368.016 669.91 369.397 669.84 371.618C683.314 385.823 696.164 400.615 708.393 415.99C716.675 424.374 726.223 426.986 737.038 423.823C718.186 401.71 696.763 382.929 672.769 367.474ZM651.552 371.114C640.497 371.854 630.09 374.853 620.334 380.11C631.349 396.281 642.046 412.655 652.421 429.233C658.115 433.756 664.617 436.282 671.923 436.814C682.557 432.426 693.449 428.736 704.606 425.745C686.487 407.821 668.802 389.609 651.552 371.114ZM606.189 382.537C588.852 386.998 573.157 394.546 559.11 405.18C569.156 422.743 578.874 440.498 588.268 458.447C590.515 464.18 594.658 467.111 600.697 467.24C617.586 461.204 632.387 451.99 645.098 439.594C632.426 420.325 619.459 401.306 606.189 382.537ZM544.965 407.606C529.967 412.418 516.733 420.151 505.262 430.804C515.167 454.379 526.386 477.34 538.919 499.688C552.803 490.963 567.319 483.614 582.462 477.652C571.938 453.181 559.437 429.833 544.965 407.606ZM487.885 435.606C475.672 437.814 464.291 442.195 453.737 448.747C455.407 475.079 459.857 501.024 467.087 526.577C484.538 523.496 499.641 516.047 512.398 504.237C506.1 480.761 497.928 457.886 487.885 435.606ZM-245.817 572.386C-255.721 572.945 -264.95 575.741 -273.5 580.776C-257.16 606.492 -242.874 633.176 -230.646 660.829C-216.523 657.874 -202.581 654.27 -188.819 650.012C-200.219 625.911 -213.308 602.663 -228.084 580.27C-233.844 576.592 -239.755 573.965 -245.817 572.386ZM706.73 438.127C692.622 441.785 678.881 446.567 665.51 452.481C671.185 465.616 677.047 478.573 683.097 491.345C700.257 491.73 715.867 487.231 729.925 477.85C728.063 460.779 720.332 447.538 706.73 438.127ZM732.697 440.956C743.516 466.741 745.607 493.088 738.975 519.999C759.16 509.773 767.241 493.216 763.215 470.318C761.415 451.081 751.24 441.297 732.697 440.956ZM655.508 457.838C601.305 469.55 591.509 497.331 626.121 541.178C637.312 547.569 648.223 547.518 658.857 541.025C663.535 531.1 667.222 520.759 669.915 509.994C667.195 492.121 662.392 474.735 655.508 457.838ZM386.759 503.938C382.901 508.292 381.457 514.003 382.418 521.071C384.506 526.175 386.597 531.279 388.685 536.384C395.14 525.524 394.497 514.709 386.759 503.938ZM352.611 517.079C350.497 517.846 348.931 519.327 347.914 521.526C346.712 533.408 349.71 543.819 356.912 552.759C365.668 539.782 364.232 527.89 352.611 517.079ZM305.532 539.722C293.755 552.299 295.191 564.195 309.833 575.402C313.831 562.738 312.398 550.846 305.532 539.722ZM254.31 559.433C252.535 566.974 251.492 575.045 251.182 583.642C252.359 588.101 255.223 590.644 259.772 591.273C266.886 579.291 265.066 568.678 254.31 559.433ZM224.912 579.043C224.37 577.159 222.991 576.183 220.769 576.112C217.464 579.829 217.484 583.468 220.822 587.029C221.249 583.619 222.613 580.96 224.912 579.043ZM727.048 492.91C711.842 497.682 697.127 503.848 682.898 511.409C679.426 523.826 675.452 536.037 670.982 548.05C687.781 545.478 703.88 540.291 719.275 532.482C729.591 519.98 732.181 506.79 727.048 492.91ZM181.369 601.08C177.795 601.379 175.052 603.066 173.136 606.134C171.381 612.841 172.983 618.637 177.938 623.519C183.319 617.05 184.46 609.57 181.369 601.08ZM-82.5247 675.481C-89.3491 673.152 -96.6241 673.183 -104.348 675.582C-102.682 691.452 -98.284 706.481 -91.1554 720.663C-89.3496 705.003 -86.4727 689.942 -82.5247 675.481ZM200.474 648.788C215.797 646.571 218.913 639.969 209.816 628.976C202.785 633.784 199.67 640.389 200.474 648.788ZM138.036 666.782C155.539 665.003 157.676 659.782 144.449 651.114C137.629 654.222 135.492 659.443 138.036 666.782ZM94.3885 666.985C92.3656 671.087 90.7188 675.619 89.4402 680.58C90.719 680.969 92.0009 681.353 93.2797 681.742C95.8434 676.972 96.2119 672.055 94.3885 666.985ZM561.372 630.583C545.128 635.325 529.029 640.516 513.08 646.151C515.357 655.651 518.744 664.783 523.238 673.542C542.241 656.888 558.372 658.976 571.636 679.808C580.258 673.474 589.685 671.857 599.925 674.955C598.159 661.558 593.579 648.992 586.178 637.254C577.771 634.212 569.502 631.989 561.372 630.583ZM493.076 656.865C468.532 663.668 444.487 672.043 420.941 681.985C453.327 687.137 485.694 691.906 518.039 696.285C513.278 680.775 504.956 667.636 493.076 656.865ZM176.851 765.736C186.706 756.951 195.999 747.465 204.732 737.281C197.745 737.566 190.96 736.909 184.373 735.311C180.792 745.288 178.287 755.431 176.851 765.736Z" fill="url(#paint1_linear_47_142)" fill-opacity="0.1"/>
    <path d="M-55.0016 569.987C-98.0984 604.562 -62.1763 641.787 -63.4722 689.619C-64.7681 737.451 -44.1693 788.762 -3.37866 839.311C37.412 889.86 97.2233 938.195 171.112 980.322C245.001 1022.45 330.844 1057.16 421.549 1081.58C512.253 1106 605.214 1119.44 692.746 1120.77C780.279 1122.11 859.87 1111.3 924.943 1089.26C990.015 1067.21 1038.7 1034.56 1066.97 993.988C1095.24 953.42 1047.06 939.626 1032.31 889.474C1032.31 889.474 745.752 838.512 527.406 779.176C283.131 712.794 -55.0016 569.987 -55.0016 569.987Z" fill="url(#paint2_linear_47_142)"/>
    <path d="M1343.2 891.543C1382.96 937.949 1426.17 905.773 1481.45 911.776C1536.73 917.78 1596.15 902.28 1654.78 866.557C1713.42 830.835 1769.59 775.916 1818.65 706.34C1867.71 636.764 1908.26 554.528 1936.94 466.43C1965.62 378.331 1981.61 286.9 1983.59 199.693C1985.56 112.486 1973.47 32.0069 1948.31 -35.0921C1923.15 -102.191 1885.64 -153.983 1838.89 -186.188C1792.14 -218.393 1775.95 -171.679 1717.91 -161.893C1717.91 -161.893 1657.58 119.008 1587.9 331.027C1509.96 568.223 1343.2 891.543 1343.2 891.543Z" fill="url(#paint3_linear_47_142)"/>
    <path d="M819.965 -4.57163C825.275 -59.1435 780.374 -71.403 751.857 -113.957C723.34 -156.511 679.229 -189.741 623.169 -210.9C567.109 -232.06 500.711 -240.541 429.462 -235.642C358.213 -230.744 284.16 -212.607 213.422 -182.731C142.684 -152.854 77.2927 -112.096 22.6536 -63.8249C-31.9856 -15.5538 -74.304 38.844 -100.804 94.8726C-127.304 150.901 -137.225 206.952 -129.746 258.392C-122.268 309.831 -84.1899 294.68 -44.3807 330.196C-44.3807 330.196 163.044 212.908 333.661 141.467C524.54 61.5415 819.965 -4.57163 819.965 -4.57163Z" fill="url(#paint4_linear_47_142)"/>
    <defs>
        <linearGradient id="paint0_linear_47_142" x1="864" y1="0" x2="864" y2="838" gradientUnits="userSpaceOnUse">
            <stop stop-color="#9FBBD9"/>
            <stop offset="1" stop-color="#467CB6"/>
        </linearGradient>
        <linearGradient id="paint1_linear_47_142" x1="4068.35" y1="2635.8" x2="-28756.9" y2="169024" gradientUnits="userSpaceOnUse">
            <stop stop-color="#005DB9"/>
            <stop offset="1" stop-color="#F8B80C"/>
        </linearGradient>
        <linearGradient id="paint2_linear_47_142" x1="-17.0291" y1="649.288" x2="947.305" y2="778.472" gradientUnits="userSpaceOnUse">
            <stop stop-color="#3269A5"/>
            <stop offset="0.972911" stop-color="#598DC6"/>
        </linearGradient>
        <linearGradient id="paint3_linear_47_142" x1="1499.1" y1="730.823" x2="1746.38" y2="-173.318" gradientUnits="userSpaceOnUse">
            <stop stop-color="#447AB5"/>
            <stop offset="0.972911" stop-color="#A0BCDA"/>
        </linearGradient>
        <linearGradient id="paint4_linear_47_142" x1="1047.59" y1="218.464" x2="1112.44" y2="-132.454" gradientUnits="userSpaceOnUse">
            <stop stop-color="#A0BCDA"/>
            <stop offset="0.972911" stop-color="#295B8C"/>
        </linearGradient>
    </defs>
</svg>
