<svg width="402" height="757" viewBox="0 0 402 757" fill="none" xmlns="http://www.w3.org/2000/svg">
    <path d="M0 0H402V757H0V0Z" fill="url(#paint0_linear_47_142)"/>
    <path opacity="0.92" fill-rule="evenodd" clip-rule="evenodd" d="M389.025 316.87C384.398 317.659 379.771 318.448 375.144 319.236C309.603 348.323 244.119 377.847 178.691 407.809C171.883 410.653 164.804 412.291 157.456 412.724C154.378 411.839 152.297 409.818 151.213 406.659C142.844 404.745 139.073 407.981 139.898 416.365C113.218 414.448 86.5095 412.736 59.7696 411.228C52.2836 411.478 45.2411 413.327 38.6432 416.773C38.8606 418.032 39.078 419.291 39.2953 420.55C64.5048 422.471 89.7345 423.14 114.986 422.555C117.176 423.3 119.424 423.781 121.73 423.998C119.279 424.848 116.827 425.698 114.376 426.548C23.5436 444.565 -67.4805 461.592 -158.697 477.629C-158.166 480.25 -156.578 481.924 -153.934 482.649C-82.0675 471.043 -10.4581 458.189 60.8957 444.089C62.848 444.396 64.8133 444.493 66.7917 444.38C83.2833 438.083 100.349 434.094 117.986 432.413C92.5233 442.131 66.7839 451.055 40.7686 459.185C40.986 460.444 41.2033 461.703 41.4207 462.962C50.7205 461.593 59.9378 459.806 69.074 457.601C91.445 449.4 113.891 441.47 136.414 433.809C136.72 438.243 138.945 441.105 143.092 442.392C135.872 448.082 128.038 452.874 119.593 456.767C115.318 461.664 110.677 466.128 105.666 470.158C106.253 476.477 106.252 482.742 105.663 488.954C103.879 489.906 102.095 490.858 100.311 491.81C97.7741 490.812 95.5552 489.246 93.654 487.112C92.3528 486.708 91.0547 486.713 89.7596 487.128C90.4736 490.022 91.785 492.607 93.6963 494.882C84.5442 500.915 75.1373 506.623 65.4754 512.006C61.9615 508.822 58.227 506.002 54.2722 503.546C53.7137 504.073 53.1553 504.601 52.5968 505.128C54.7903 508.504 57.0897 511.785 59.492 514.97C39.3243 527.024 19.0752 538.901 -1.25774 550.6C-11.9839 540.712 -22.6003 530.639 -33.1043 520.383C-39.062 522.564 -45.2628 524.269 -51.7069 525.498C-50.2316 512.56 -49.8815 499.538 -50.6563 486.433C-51.5674 479.516 -55.3809 474.981 -62.0981 472.829C-60.066 490.207 -58.1465 507.595 -56.341 524.992C-58.2851 526.718 -60.5619 527.322 -63.1728 526.804C-68.7491 522.743 -74.8328 520.107 -81.4251 518.898C-81.1756 523.301 -79.6469 527.144 -76.8364 530.429C-70.5316 531.26 -64.2814 532.354 -58.0829 533.714C-56.1523 535.212 -54.3536 536.85 -52.688 538.627C-46.5399 552.803 -40.0077 566.811 -33.0922 580.653C-30.5564 581.609 -29.2288 580.519 -29.1103 577.382C-28.7664 573.527 -29.5932 569.995 -31.5888 566.787C-27.85 565.682 -24.1729 564.407 -20.5577 562.963C-18.6219 562.67 -17.0043 563.259 -15.7063 564.728C-11.2176 573.46 -4.82093 575.395 3.48199 570.531C8.01686 579.508 11.5762 588.839 14.1599 598.523C15.4218 598.308 16.6837 598.093 17.9457 597.878C18.6639 586.312 20.8489 575.137 24.4997 564.356C33.2246 561.071 41.979 557.851 50.7613 554.695C51.9735 554.629 53.097 554.869 54.1334 555.417C54.8755 557.661 56.2539 559.37 58.2663 560.545C65.5842 559.788 72.6268 557.939 79.3927 555C79.6101 556.259 79.8274 557.518 80.0448 558.777C70.7368 559.67 62.1571 562.646 54.3055 567.701C53.0917 568.782 52.4673 570.184 52.4338 571.909C53.4036 576.06 55.4908 579.376 58.698 581.859C66.4015 578.248 74.4226 575.799 82.7618 574.517C70.733 581.802 70.3537 589.644 81.6267 598.041C90.311 597.222 98.2599 594.356 105.473 589.44C106.046 592.899 105.784 596.401 104.688 599.944C98.7712 595.767 93.7235 596.628 89.5454 602.525C88.6851 614.345 93.0847 623.531 102.747 630.087C105.691 629.585 108.636 629.083 111.58 628.581C112.59 626.876 113.353 625.018 113.866 623.007C113.59 617.934 113.809 612.927 114.521 607.989C123.747 601.232 132.973 594.475 142.198 587.717C148.379 585.452 154.587 585.042 160.822 586.487C164.703 584.625 168.199 582.302 171.31 579.515C191.126 580.574 210.953 581.299 230.792 581.69C231.822 587.682 234.795 592.36 239.709 595.724C245.559 596.514 249.722 594.293 252.199 589.059C253.578 591.139 255.375 592.777 257.593 593.972C263.907 592.213 270.144 590.718 276.305 589.487C281.844 580.325 280.295 572.596 271.653 566.3C269.986 560.242 267.71 554.581 264.824 549.318C268.253 551.829 272.045 552.478 276.202 551.267C287.854 547.652 299.234 543.336 310.34 538.319C315.394 533.529 316.207 528.206 312.779 522.349C322.968 511.919 325.464 500.043 320.269 486.724C310.464 474.858 299.704 463.946 287.988 453.989C283.642 452.276 279.146 451.314 274.499 451.103C263.73 451.597 252.961 451.92 242.191 452.073C245.192 443.652 242.807 437.361 235.036 433.202C222.608 433.76 210.192 434.58 197.789 435.662C194.627 434.905 192.161 433.165 190.392 430.442C189.058 430.237 187.724 430.032 186.389 429.828C179.642 430.976 172.94 431.038 166.286 430.014C165.182 430.728 164.485 431.71 164.197 432.962C163.219 431.011 162.647 428.948 162.479 426.774C164.161 426.487 165.845 426.2 167.527 425.914C167.31 424.655 167.092 423.395 166.875 422.136C257.548 400.633 348.233 379.128 438.928 357.62C438.71 356.36 438.493 355.101 438.276 353.842C422.934 355.025 407.755 357.396 392.738 360.956C325.798 377.064 258.8 392.805 191.745 408.176C257.16 378.682 322.68 349.368 388.307 320.233C389.11 319.227 389.35 318.106 389.025 316.87ZM158.476 426.16C157.214 426.375 155.952 426.59 154.691 426.805C158.432 434.287 159.694 434.072 158.476 426.16ZM185.888 434.45C182.383 434.89 180.112 436.789 179.077 440.147C182.9 440.628 186.192 439.635 188.955 437.168C187.69 436.465 186.668 435.559 185.888 434.45ZM141.933 480.827C146.547 474.807 148.193 468.046 146.875 460.542C143.254 466.797 141.607 473.558 141.933 480.827ZM287.487 458.611C286.815 458.803 286.467 459.294 286.442 460.085C291.254 465.143 295.843 470.41 300.212 475.885C303.169 478.87 306.577 479.802 310.437 478.678C303.703 470.805 296.053 464.116 287.487 458.611ZM279.915 459.901C275.97 460.162 272.256 461.227 268.775 463.096C272.71 468.853 276.532 474.683 280.238 480.585C282.271 482.196 284.592 483.096 287.2 483.287C290.994 481.728 294.881 480.417 298.862 479.355C292.391 472.973 286.076 466.487 279.915 459.901ZM263.728 463.956C257.541 465.54 251.942 468.223 246.931 472.004C250.52 478.257 253.992 484.578 257.349 490.967C258.152 493.008 259.631 494.052 261.787 494.1C267.813 491.955 273.093 488.679 277.627 484.271C273.1 477.41 268.468 470.639 263.728 463.956ZM241.883 472.865C236.531 474.574 231.81 477.323 227.718 481.112C231.258 489.504 235.267 497.677 239.746 505.634C244.699 502.531 249.878 499.919 255.281 497.801C251.519 489.09 247.053 480.778 241.883 472.865ZM221.517 482.817C217.159 483.6 213.098 485.156 209.333 487.486C209.935 496.857 211.529 506.092 214.115 515.187C220.342 514.094 225.731 511.447 230.281 507.247C228.028 498.891 225.107 490.748 221.517 482.817ZM-40.3075 531.332C-43.8419 531.529 -47.1351 532.522 -50.1854 534.312C-44.3479 543.467 -39.2435 552.967 -34.8734 562.811C-29.8335 561.762 -24.8583 560.483 -19.9479 558.97C-24.0218 550.391 -28.6982 542.114 -33.9768 534.142C-36.0333 532.832 -38.1435 531.895 -40.3075 531.332ZM299.623 483.762C294.589 485.061 289.686 486.76 284.915 488.861C286.943 493.537 289.038 498.15 291.2 502.696C297.325 502.837 302.895 501.239 307.91 497.904C307.242 491.828 304.479 487.114 299.623 483.762ZM308.891 484.775C312.758 493.954 313.51 503.33 311.149 512.906C318.351 509.271 321.231 503.381 319.789 495.231C319.143 488.384 315.509 484.9 308.891 484.775ZM281.346 490.766C262.004 494.922 258.514 504.806 270.877 520.418C274.872 522.695 278.766 522.679 282.56 520.371C284.228 516.84 285.541 513.16 286.5 509.33C285.525 502.969 283.807 496.781 281.346 490.766ZM185.441 507.112C184.065 508.661 183.551 510.693 183.896 513.209C184.642 515.026 185.389 516.843 186.136 518.66C188.437 514.796 188.205 510.947 185.441 507.112ZM173.257 511.781C172.502 512.054 171.944 512.581 171.581 513.363C171.155 517.591 172.227 521.297 174.8 524.48C177.922 519.864 177.407 515.631 173.257 511.781ZM156.46 519.829C152.259 524.303 152.774 528.536 158.002 532.528C159.426 528.022 158.913 523.79 156.46 519.829ZM138.183 526.833C137.551 529.516 137.181 532.388 137.072 535.447C137.493 537.035 138.516 537.94 140.139 538.165C142.676 533.903 142.024 530.125 138.183 526.833ZM127.695 533.805C127.502 533.134 127.009 532.787 126.216 532.761C125.038 534.083 125.045 535.378 126.237 536.646C126.389 535.433 126.875 534.487 127.695 533.805ZM306.886 503.263C301.461 504.958 296.21 507.149 291.134 509.836C289.897 514.255 288.482 518.6 286.889 522.874C292.884 521.962 298.628 520.12 304.121 517.344C307.8 512.897 308.721 508.204 306.886 503.263ZM112.16 541.638C110.885 541.744 109.906 542.344 109.223 543.435C108.598 545.821 109.171 547.884 110.94 549.623C112.859 547.322 113.265 544.66 112.16 541.638ZM17.9939 568.058C15.5578 567.227 12.9614 567.237 10.2051 568.089C10.8034 573.737 12.3764 579.086 14.9237 584.135C15.5647 578.562 16.5881 573.203 17.9939 568.058ZM118.989 558.621C124.457 557.835 125.568 555.486 122.319 551.572C119.81 553.281 118.7 555.631 118.989 558.621ZM96.7092 565.01C102.956 564.381 103.717 562.524 98.9946 559.436C96.5611 560.54 95.7997 562.398 96.7092 565.01ZM81.1316 565.073C80.4105 566.532 79.8238 568.145 79.3686 569.91C79.8251 570.049 80.2826 570.186 80.7391 570.325C81.653 568.628 81.7835 566.878 81.1316 565.073ZM247.788 552.222C241.991 553.906 236.247 555.749 230.556 557.751C231.371 561.133 232.582 564.383 234.188 567.501C240.966 561.579 246.724 562.325 251.462 569.742C254.538 567.49 257.902 566.916 261.557 568.021C260.924 563.253 259.287 558.78 256.643 554.601C253.642 553.517 250.69 552.724 247.788 552.222ZM223.419 561.56C214.661 563.975 206.082 566.95 197.68 570.484C209.24 572.324 220.793 574.028 232.337 575.594C230.635 570.073 227.662 565.395 223.419 561.56ZM110.584 600.235C114.099 597.111 117.414 593.737 120.529 590.115C118.035 590.214 115.613 589.979 113.262 589.409C111.986 592.959 111.094 596.568 110.584 600.235Z" fill="url(#paint1_linear_47_142)" fill-opacity="0.1"/>
    <path d="M251.964 825.646C273.221 853.361 293.181 823.914 320.515 820.25C347.85 816.587 376.39 796.822 403.778 762.588C431.166 728.354 456.614 680.635 478.02 623.374C499.427 566.114 516.175 500.956 526.883 433.287C537.59 365.617 541.949 297.379 539.598 234.213C537.247 171.046 528.254 114.765 513.363 70.02C498.472 25.2754 478.111 -6.64719 453.961 -23.1097C429.811 -39.5722 423.655 -3.549 395.568 11.8982C395.568 11.8982 376.684 223.164 350.597 386.112C321.412 568.41 251.964 825.646 251.964 825.646Z" fill="url(#paint2_linear_47_142)"/>
    <path d="M315.189 2.08337C320.463 -18.8915 300.045 -21.2505 288.852 -35.9391C277.659 -50.6278 258.681 -60.983 233.487 -66.1487C208.293 -71.3144 177.606 -71.1424 143.962 -65.6468C110.319 -60.1512 74.685 -49.4899 40.0059 -34.5441C5.32686 -19.5982 -27.4017 -0.796891 -55.4745 20.3058C-83.5473 41.4085 -106.158 64.2067 -121.439 86.816C-136.719 109.425 -144.23 131.197 -143.351 150.33C-142.472 169.464 -123.852 161.772 -107.007 173.214C-107.007 173.214 -3.80252 118.128 79.8102 82.3139C173.352 42.2471 315.189 2.08337 315.189 2.08337Z" fill="url(#paint3_linear_47_142)"/>
    <path d="M-126.433 478.922C-149.3 487.461 -139.383 508.051 -146.549 527.939C-153.715 547.827 -152.177 572.205 -142.062 599.06C-131.947 625.914 -113.546 654.473 -88.3798 682.376C-63.2134 710.279 -32.0043 736.725 2.66817 759.529C37.3406 782.332 74.4807 800.838 111.019 813.517C147.557 826.196 182.443 832.683 212.796 832.443C243.148 832.203 268.093 825.243 285.571 812.137C303.049 799.032 284.746 786.574 285.498 763.491C285.498 763.491 172.334 702.438 88.9453 647.316C-4.346 585.648 -126.433 478.922 -126.433 478.922Z" fill="url(#paint4_linear_47_142)"/>
    <defs>
        <linearGradient id="paint0_linear_47_142" x1="201" y1="0" x2="201" y2="757" gradientUnits="userSpaceOnUse">
            <stop stop-color="#9FBBD9"/>
            <stop offset="1" stop-color="#467CB6"/>
        </linearGradient>
        <linearGradient id="paint1_linear_47_142" x1="1499.86" y1="1266.61" x2="-10182.4" y2="60472.8" gradientUnits="userSpaceOnUse">
            <stop stop-color="#005DB9"/>
            <stop offset="1" stop-color="#F8B80C"/>
        </linearGradient>
        <linearGradient id="paint2_linear_47_142" x1="322.278" y1="687.223" x2="394.744" y2="-1.96526" gradientUnits="userSpaceOnUse">
            <stop stop-color="#447AB5"/>
            <stop offset="0.972911" stop-color="#A0BCDA"/>
        </linearGradient>
        <linearGradient id="paint3_linear_47_142" x1="410.487" y1="75.0802" x2="416.223" y2="-63.1308" gradientUnits="userSpaceOnUse">
            <stop stop-color="#A0BCDA"/>
            <stop offset="0.972911" stop-color="#295B8C"/>
        </linearGradient>
        <linearGradient id="paint4_linear_47_142" x1="-121.481" y1="517.449" x2="265.205" y2="705.154" gradientUnits="userSpaceOnUse">
            <stop stop-color="#3269A5"/>
            <stop offset="0.972911" stop-color="#598DC6"/>
        </linearGradient>
    </defs>
</svg>
