<svg width="402" height="716" viewBox="0 0 402 716" fill="none" xmlns="http://www.w3.org/2000/svg">
    <path d="M0 0H1728V861H0V0Z" fill="url(#paint0_linear_0_1)"/>
    <g clip-path="url(#clip0_0_1)">
        <path d="M132.628 289.035C136.973 289.035 141.318 288.954 145.654 289.035C151.663 289.179 154.65 292.248 154.821 298.305C154.911 302.499 154.893 306.701 154.821 310.904C154.776 313.37 155.469 314.738 158.257 315.035C165.847 315.879 173.348 317.384 180.675 319.535C183.59 320.372 184.723 319.409 185.677 316.907C187.215 312.848 188.906 308.807 190.679 304.875C192.739 300.276 196.67 298.35 201.348 300.177C210.41 303.723 219.381 307.484 228.263 311.462C232.446 313.334 233.859 317.303 232.249 321.623C230.575 326.122 228.74 330.55 226.734 334.897C225.628 337.3 226.581 338.371 228.533 339.523C234.88 343.206 240.956 347.338 246.714 351.888C248.513 353.355 249.719 353.148 251.212 351.555C254.432 348.216 257.788 344.994 261.107 341.773C264.706 338.281 269.105 337.876 272.73 341.341C279.777 348.054 286.644 354.954 293.331 362.039C296.722 365.639 296.308 369.752 292.638 373.685C289.471 377.078 286.161 380.344 282.805 383.584C281.348 384.979 281.114 386.059 282.473 387.733C286.201 392.429 289.597 397.378 292.638 402.546C294.068 404.913 295.643 405.471 298.188 404.211C302.075 402.285 306.069 400.566 310.072 398.874C314.957 396.822 319.068 398.154 321.299 403.005C325.311 411.546 329.107 420.185 332.796 428.87C334.766 433.495 333.182 437.446 328.603 439.741C324.591 441.748 320.507 443.575 316.306 445.231C313.607 446.293 313.185 447.733 313.985 450.405C316.502 458.708 318.29 467.215 319.329 475.829C319.698 478.916 321.182 479.879 324.07 479.78C327.956 479.645 331.86 479.672 335.764 479.78C342.502 479.951 345.399 482.822 345.453 489.418C345.525 497.962 345.525 506.502 345.453 515.04C345.453 521.834 342.349 524.768 335.458 524.831C331.266 524.831 327.074 524.885 322.864 524.831C320.687 524.831 319.599 525.677 319.356 527.927C318.456 535.652 316.943 543.292 314.831 550.777C314.174 553.153 314.696 554.296 317.026 555.142C320.957 556.572 324.789 558.3 328.648 559.938C334.946 562.638 336.547 566.238 334.046 572.412C330.747 580.613 327.359 588.776 323.881 596.899C321.614 602.2 317.521 603.865 312.186 601.786C308.147 600.202 304.09 598.582 300.185 596.728C297.568 595.486 296.11 596.179 294.734 598.528C291.085 604.901 286.966 610.993 282.41 616.752C280.934 618.597 281.195 619.74 282.823 621.252C286.116 624.303 289.345 627.434 292.422 630.71C296.65 635.21 296.677 639.332 292.422 643.724C286.257 650.059 280.005 656.305 273.666 662.461C269.114 666.852 264.967 666.69 260.325 662.199C257.311 659.284 254.288 656.368 251.464 653.263C249.737 651.364 248.459 651.013 246.264 652.75C240.039 657.701 233.42 662.135 226.473 666.006C224.305 667.212 223.927 668.517 224.917 670.731C226.716 674.691 228.308 678.732 229.856 682.79C232.15 688.793 230.548 692.447 224.539 694.94C216.659 698.206 208.76 701.446 200.817 704.569C194.367 707.107 190.634 705.469 187.953 699.106C186.388 695.381 184.804 691.646 183.455 687.848C182.555 685.472 181.395 684.5 178.75 685.229C171.957 687.071 165.043 688.436 158.06 689.315C155.541 689.648 154.794 690.872 154.83 693.176C154.893 697.523 154.911 701.869 154.83 706.216C154.686 712.012 151.726 715.135 145.897 715.216C136.763 715.39 127.626 715.39 118.487 715.216C112.972 715.117 110.004 711.985 109.824 706.396C109.68 702.058 109.698 697.703 109.824 693.365C109.869 690.854 109.068 689.603 106.333 689.27C98.8983 688.378 91.5463 686.895 84.3473 684.833C81.5136 684.014 79.9753 684.482 78.9497 687.425C77.5644 691.376 75.8552 695.219 74.11 699.034C71.6721 704.344 67.8129 705.982 62.4153 703.813C54.2171 700.531 46.0668 697.127 37.9645 693.599C31.9733 690.989 30.5609 687.299 32.9538 681.305C34.5101 677.409 36.1114 673.53 37.8206 669.705C38.7202 667.635 38.7831 666.249 36.4982 664.926C30.0081 661.175 23.7941 656.964 17.9037 652.327C16.1945 650.977 15.133 651.274 13.7476 652.732C10.653 655.99 7.45047 659.167 4.22995 662.28C-0.348961 666.699 -4.52305 666.78 -9.11095 662.28C-15.3361 656.215 -21.4623 650.05 -27.5435 643.85C-31.9605 639.35 -31.9695 635.012 -27.6425 630.494C-24.6378 627.362 -21.5972 624.249 -18.4127 621.306C-16.6945 619.713 -16.2447 618.543 -17.8819 616.5C-21.5441 611.961 -24.8523 607.147 -27.7774 602.101C-29.1448 599.725 -30.6111 599.005 -33.2289 600.301C-37.1061 602.245 -41.1093 603.955 -45.1215 605.602C-50.519 607.843 -54.4682 606.43 -56.942 601.102C-60.7863 592.816 -64.4896 584.465 -68.052 576.047C-70.238 570.891 -68.6457 567.129 -63.4731 564.672C-59.5509 562.809 -55.5927 561.027 -51.5805 559.371C-49.2776 558.471 -48.378 557.328 -49.1966 554.638C-51.8735 545.918 -53.782 536.98 -54.9 527.927C-55.1699 525.668 -56.2404 524.804 -58.4084 524.831C-62.6005 524.876 -66.7925 524.831 -71.0026 524.831C-77.9025 524.777 -80.9611 521.825 -80.988 515.049C-81.03 506.505 -81.03 497.965 -80.988 489.427C-80.9341 483.002 -78.1004 480.05 -71.7223 479.825C-67.3863 479.672 -63.0323 479.708 -58.6963 479.771C-56.3123 479.771 -55.1968 478.871 -54.918 476.405C-54.0234 468.958 -52.5129 461.598 -50.402 454.401C-49.6284 451.701 -50.1861 450.279 -52.8939 449.289C-56.969 447.796 -60.9902 446.059 -64.8944 444.241C-70.2919 441.721 -71.8212 438.058 -69.5903 432.541C-66.3098 424.37 -62.9123 416.219 -59.3979 408.09C-56.9151 402.348 -52.8039 400.737 -47.0286 403.077C-43.0074 404.706 -38.9323 406.317 -35.0371 408.153C-32.923 409.134 -31.8256 408.594 -30.746 406.668C-27.0495 400.139 -22.8381 393.916 -18.1518 388.057C-16.5685 386.059 -16.8744 384.799 -18.6106 383.188C-21.7861 380.227 -24.8537 377.141 -27.8314 373.982C-32.0684 369.482 -32.1314 365.342 -27.8764 360.959C-21.6152 354.504 -15.2671 348.141 -8.83206 341.872C-4.72994 337.885 -0.321968 338.11 3.80714 342.15C7.01867 345.291 10.2842 348.387 13.3878 351.627C14.962 353.274 16.1495 353.265 17.8857 351.861C24.0999 346.896 30.7202 342.461 37.6766 338.605C40.2765 337.192 40.5103 335.689 39.3589 333.205C37.6137 329.398 36.1114 325.474 34.645 321.506C32.585 316.007 34.1682 312.065 39.5118 309.806C47.794 306.333 56.1212 302.961 64.4934 299.691C69.9539 297.549 73.7681 299.151 76.188 304.524C77.9872 308.483 79.6334 312.5 81.1268 316.574C82.0264 318.977 83.2408 319.787 85.8676 319.076C92.6408 317.149 99.561 315.782 106.558 314.99C109.095 314.738 109.833 313.433 109.797 311.129C109.734 307.088 109.752 303.03 109.797 298.989C109.878 292.086 112.837 289.089 119.629 288.999C123.938 288.99 128.283 289.026 132.628 289.035ZM45.9079 575.462C45.9079 559.263 45.9079 543.064 45.9079 526.919C45.9079 525.029 46.8075 521.951 43.533 522.158C39.3499 522.419 34.3212 519.675 31.1906 524.003C29.9042 525.803 28.9326 526.415 27.0885 526.415C17.193 526.415 7.29755 526.325 -2.59792 526.469C-5.98937 526.514 -7.0239 525.119 -6.97891 521.906C-6.84398 513.222 -6.97892 504.528 -6.92494 495.808C-6.92494 491.56 -6.65507 491.308 -2.2201 491.308C0.739548 491.308 3.23141 490.858 5.56135 488.734C17.8497 477.539 30.282 466.497 42.6244 455.355C47.6351 450.855 47.5901 450.774 54.319 453.456C64.4544 457.536 74.5897 461.622 84.7251 465.714C97.3613 470.789 110.007 475.856 122.661 480.914C126.367 482.39 126.394 482.336 126.583 478.637C126.583 477.89 126.628 477.143 126.628 476.387C126.628 456.309 126.628 436.231 126.529 416.153C126.529 413.22 127.213 411.015 129.498 409.08C133.609 405.588 137.666 402.024 141.471 398.217C144.656 395.032 148.38 396.039 152.023 396.192C153.247 396.246 153.679 397.38 153.76 398.487C153.849 399.828 153.867 401.187 153.867 402.528C153.867 430.993 153.867 459.468 153.867 487.933C153.867 489.796 152.734 493.243 155.307 493.189C157.664 493.144 156.512 489.679 156.521 487.789C156.602 459.621 156.566 431.461 156.575 403.293C156.575 401.799 156.575 400.296 156.674 398.793C156.764 396.993 157.754 396.219 159.535 396.003C163.655 395.499 164.743 396.399 164.743 400.926C164.743 430.445 164.761 459.963 164.797 489.481C164.797 491.281 163.826 494.386 166.183 494.458C169.277 494.557 167.982 491.254 167.982 489.472C168.081 462.654 168.045 435.826 168.045 409.008C168.045 405.858 168.135 402.708 168.045 399.567C167.955 396.426 169.844 395.967 172.399 395.967C174.954 395.967 176.168 397.272 176.132 399.828C175.988 410.151 175.997 420.473 175.925 430.796C175.817 447.895 176.114 464.922 175.718 481.985C175.637 485.584 176.411 489.139 175.853 492.784C175.789 493.003 175.773 493.233 175.808 493.459C175.843 493.684 175.928 493.899 176.056 494.088C176.185 494.276 176.353 494.434 176.55 494.549C176.747 494.665 176.967 494.735 177.194 494.755C178.327 494.863 178.768 494.008 178.849 493.054C178.957 491.713 178.957 490.354 178.957 489.013C178.957 460.395 178.957 431.776 178.957 403.158C178.957 401.808 178.957 400.458 178.957 399.117C178.957 397.11 179.857 396.21 181.935 396.03C186.199 395.652 187.08 396.48 187.08 401.547C187.08 432.559 187.08 463.575 187.08 494.593C187.076 496.234 187.193 497.874 187.431 499.498C187.469 499.876 187.642 500.229 187.917 500.491C188.193 500.754 188.553 500.909 188.933 500.929C190.013 500.875 189.761 499.84 189.77 499.183C189.824 494.989 189.815 490.795 189.815 486.583C189.815 458.121 189.815 429.653 189.815 401.178C189.815 396.327 190.229 395.967 194.835 395.994C199.252 395.994 199.612 396.39 199.612 401.394C199.612 426.413 199.612 451.434 199.612 476.459C199.612 478.556 199.612 480.653 199.612 482.759C199.612 483.47 199.414 484.388 200.223 484.747C201.033 485.107 201.573 484.316 202.103 483.848C205.126 481.148 208.14 478.448 211.099 475.748C212.458 474.497 213.798 473.48 215.804 473.48C234.677 473.48 253.548 473.48 272.415 473.48C275.177 473.48 276.068 474.686 276.014 477.314C275.888 481.652 276.014 486.007 276.014 490.345C275.969 494.971 275.852 495.106 271.165 495.124C259.785 495.124 248.396 495.124 236.98 495.169C235.451 495.169 233.328 494.665 233.157 497.131C232.959 499.876 235.163 499.669 236.926 499.678C243.511 499.723 250.105 499.678 256.717 499.678C261.962 499.678 267.198 499.741 272.442 499.678C275.141 499.678 276.238 500.794 275.951 503.502C275.663 506.211 273.738 505.95 271.965 505.95C260.882 505.95 249.8 505.95 238.681 505.95C237.484 505.95 236.288 505.95 235.082 506.058C234.791 506.077 234.508 506.157 234.249 506.292C233.991 506.426 233.763 506.614 233.581 506.842C233.399 507.069 233.266 507.333 233.192 507.615C233.117 507.897 233.103 508.191 233.148 508.479C233.148 509.883 233.733 510.801 235.199 510.909C236.666 511.017 237.898 511.044 239.238 511.044C250.168 511.044 261.107 511.044 272.037 511.044C275.582 511.044 276.625 512.304 276.023 515.211C275.483 517.839 273.369 517.263 271.723 517.272C260.343 517.335 248.954 517.272 237.538 517.353C235.739 517.353 233.13 516.75 233.265 519.819C233.391 522.518 235.82 521.663 237.457 521.852C238.206 521.893 238.957 521.893 239.706 521.852C250.339 521.852 260.972 521.933 271.606 521.807C274.817 521.807 276.292 522.707 276.104 526.145C275.897 530.33 276.104 534.533 276.104 538.744C276.104 542.956 275.69 543.325 271.381 543.352C262.547 543.415 253.704 543.352 244.87 543.352C243.668 543.339 242.467 543.39 241.271 543.505C240.318 543.613 239.553 544.09 239.526 545.188C239.499 546.286 240.291 546.763 241.235 546.853C242.423 546.97 243.628 546.988 244.834 546.988C253.974 546.988 263.104 546.988 272.244 546.988C274.691 546.988 276.445 547.537 275.978 550.534C275.6 552.937 273.693 552.55 272.127 552.559C262.988 552.613 253.857 552.559 244.717 552.604C243.516 552.584 242.314 552.632 241.119 552.748C240.889 552.741 240.661 552.785 240.451 552.876C240.24 552.967 240.052 553.103 239.899 553.275C239.747 553.446 239.634 553.649 239.568 553.869C239.502 554.089 239.484 554.32 239.517 554.548C239.535 554.927 239.693 555.287 239.96 555.556C240.228 555.826 240.586 555.986 240.966 556.005C242.003 556.146 243.049 556.216 244.096 556.212C253.092 556.212 262.088 556.086 271.084 556.293C274.556 556.374 276.023 555.016 277.102 551.794C287.06 522.095 288.185 492.073 279.954 461.97C258.993 385.303 182.438 334.987 100.126 352.635C21.1152 369.581 -30.3322 443.683 -19.1054 523.778C-13.1861 566.022 7.76534 599.815 41.7248 625.545C42.7503 626.328 43.8298 627.821 45.1432 627.245C46.4566 626.669 45.9079 624.852 45.9169 623.583C45.9289 607.534 45.9259 591.493 45.9079 575.462ZM109.725 587.585V584.885C109.725 565.572 109.725 546.256 109.725 526.937C109.725 525.371 110.381 523.175 108.564 522.437C105.72 521.425 102.62 521.38 99.7482 522.311C97.3103 523.058 98.3449 525.668 98.3449 527.45C98.3029 566.832 98.3029 606.211 98.3449 645.586C98.3449 651.544 98.3449 651.544 104.318 652.687C109.239 653.641 109.716 653.254 109.716 648.187C109.722 627.998 109.725 607.798 109.725 587.585ZM106.396 495.196C111.929 495.196 117.461 495.196 123.003 495.196C124.136 495.196 125.701 495.547 126.115 494.089C126.646 492.289 124.892 491.983 123.722 491.479C104.363 483.11 85.004 474.764 65.6448 466.443C64.8712 466.11 63.9086 465.228 63.207 466.029C62.5053 466.829 63.5848 467.585 64.1065 468.188C71.0424 476.216 78.0771 484.181 84.986 492.28C85.7594 493.281 86.7668 494.078 87.9197 494.599C89.0725 495.119 90.3356 495.349 91.598 495.268C96.5187 495.079 101.457 495.196 106.396 495.196ZM128.886 599.59V629.657C128.886 636.857 128.886 644.057 128.886 651.193C128.886 652.552 128.409 654.73 130.568 654.649C132.727 654.568 131.9 652.408 132.124 651.049C132.138 650.899 132.138 650.749 132.124 650.599C132.124 616.785 132.124 582.977 132.124 549.175C132.124 547.69 132.853 545.143 130.667 545.098C128.022 545.044 128.931 547.798 128.922 549.328C128.823 566.076 128.859 582.806 128.859 599.554L128.886 599.59ZM45.9259 479.897C45.9259 476.009 45.9259 472.121 45.9259 468.242C45.9259 467.396 46.2947 466.209 45.3861 465.813C44.3426 465.363 43.9648 466.605 43.452 467.252C37.9105 474.299 32.4051 481.373 26.8636 488.419C25.5862 490.048 24.3627 491.542 27.9341 491.416C29.3734 491.371 30.6329 491.731 30.9657 493.414C31.2986 495.097 32.7649 495.169 34.1592 495.214C36.858 495.268 39.5568 495.214 42.2555 495.268C44.9543 495.322 46.0608 494.278 45.9708 491.56C45.8539 487.6 45.8989 483.713 45.8989 479.825L45.9259 479.897ZM187.161 583.733C187.161 602.443 187.161 621.144 187.215 639.854C187.215 641.321 186.271 644.003 188.223 644.066C190.67 644.147 189.59 641.366 189.905 639.755C189.919 639.605 189.919 639.454 189.905 639.305C189.905 601.897 189.905 564.483 189.905 527.063C189.905 525.56 190.634 522.86 188.727 522.851C186.253 522.851 187.269 525.623 187.26 527.162C187.089 545.953 187.152 564.807 187.152 583.661L187.161 583.733ZM119.692 599.653C119.692 616.866 119.692 634.085 119.692 651.31C119.692 652.516 119.197 654.487 121.158 654.442C122.706 654.442 122.22 652.642 122.355 651.49C122.391 650.891 122.391 650.29 122.355 649.69C122.355 616.446 122.34 583.205 122.31 549.967C122.31 548.338 123.156 545.467 121.068 545.386C118.775 545.323 119.692 548.203 119.683 549.787C119.674 566.337 119.701 582.959 119.71 599.581L119.692 599.653ZM55.3625 550.633C55.3625 555.727 55.3625 560.826 55.3625 565.932C55.3625 566.499 55.1736 567.237 55.8123 567.516C56.451 567.795 56.8469 567.129 57.2067 566.706C61.021 562.089 64.7812 557.436 68.6405 552.856C69.8279 551.452 69.8369 550.399 68.6405 548.977C64.7812 544.405 61.0389 539.734 57.2337 535.109C56.8828 534.677 56.532 533.993 55.8573 534.263C55.1826 534.533 55.3805 535.271 55.3805 535.838C55.3715 540.679 55.3805 545.62 55.3805 550.561L55.3625 550.633ZM55.3625 590.771H55.3086C55.3086 595.711 55.3086 600.67 55.3086 605.593C55.3086 606.151 55.3895 606.979 55.7404 607.213C56.64 607.807 57.0178 606.817 57.4496 606.313C61.1919 601.813 64.8892 597.313 68.6315 592.813C68.885 592.587 69.0879 592.31 69.2268 592C69.3658 591.689 69.4376 591.353 69.4376 591.013C69.4376 590.674 69.3658 590.338 69.2268 590.027C69.0879 589.717 68.885 589.44 68.6315 589.214C64.7992 584.615 61.0569 579.944 57.2517 575.327C56.9008 574.895 56.1992 574.283 55.8843 574.427C54.9847 574.724 55.3535 575.696 55.3535 576.371C55.4075 581.114 55.4255 585.875 55.4255 590.699L55.3625 590.771ZM88.7193 591.211C88.7193 586.298 88.7193 581.375 88.7193 576.461C88.7193 575.786 89.0161 574.796 88.0266 574.661C87.6488 574.607 87.073 575.282 86.7132 575.723C83.0159 580.223 79.3636 584.723 75.6303 589.169C74.6047 590.393 74.4428 591.346 75.5493 592.651C79.2826 597.097 82.9079 601.651 86.6052 606.151C87.037 606.673 87.5048 607.654 88.3325 607.186C89.0161 606.799 88.7103 605.836 88.7103 605.107C88.7913 600.382 88.7822 595.774 88.7822 591.139L88.7193 591.211ZM88.8002 632.231H88.6833C88.6833 627.434 88.6833 622.647 88.6833 617.832C88.6833 616.977 88.9892 615.87 87.9007 615.501C87.1 615.231 86.5603 616.014 86.1015 616.563C82.5841 620.847 79.1297 625.176 75.5853 629.432C74.5058 630.728 74.6407 631.736 75.6752 632.969C79.5165 637.559 83.2948 642.212 87.118 646.828C87.3879 647.152 87.8287 647.602 88.1525 647.566C88.9711 647.485 88.8092 646.666 88.8092 646.144C88.8812 641.447 88.8632 636.803 88.8632 632.159L88.8002 632.231ZM88.6653 551.128H88.7373C88.7373 546.349 88.7373 541.57 88.7373 536.792C88.7373 536.09 88.9802 535.154 88.1166 534.821C87.5138 534.587 87.082 535.226 86.7132 535.676L75.5943 549.175C74.5598 550.426 74.7487 551.623 75.7292 552.775C79.4415 557.256 83.1568 561.741 86.8751 566.229C87.226 566.652 87.5588 567.372 88.2335 567.066C88.9082 566.76 88.6653 566.031 88.6653 565.455C88.7373 560.613 88.7283 555.834 88.7283 551.056L88.6653 551.128ZM13.9995 491.299C18.8213 492.667 21.4841 490.021 24.0839 486.529C29.7153 478.988 35.6346 471.653 41.4369 464.238C42.6334 462.708 43.8658 461.205 45.0353 459.648C45.1614 459.484 45.2494 459.294 45.293 459.091C45.3366 458.889 45.3346 458.679 45.2872 458.478C44.9993 458.019 44.5045 458.334 44.1627 458.604C43.344 459.252 42.5344 459.918 41.7518 460.611C31.9643 469.394 22.1827 478.184 12.4072 486.979C11.0938 488.158 9.87937 489.454 8.61095 490.687C10.3741 492.019 12.3622 490.903 14.0894 491.227L13.9995 491.299ZM65.177 495.376C67.588 495.376 69.9629 495.331 72.3737 495.376C73.8851 495.421 74.4878 494.962 73.3813 493.675C68.0287 487.483 62.5862 481.337 57.2337 475.181C56.8559 474.749 56.3341 474.146 55.7764 474.668C55.4459 475.14 55.2901 475.713 55.3356 476.288C55.2906 479.267 55.2366 482.246 55.3356 485.215C55.4345 488.185 54.0761 492.154 55.9203 494.341C58.0973 496.78 62.1364 494.602 65.267 495.304L65.177 495.376ZM72.4817 569.487C75.7742 569.487 79.0667 569.487 82.3772 569.487C84.2213 569.487 85.0759 569.082 83.6006 567.273C80.2722 563.232 76.9347 559.173 73.6422 555.124C72.4187 553.612 71.4742 554.026 70.4306 555.322C67.3361 559.164 64.2055 562.989 61.0749 566.796C59.1498 569.145 60.5442 569.496 62.6312 569.496L72.4817 569.487ZM72.3018 532.238H62.0915C59.9594 532.238 59.7795 533.138 61.012 534.668C64.2235 538.591 67.48 542.488 70.6645 546.439C71.825 547.87 72.7426 547.78 73.8491 546.439C77.1236 542.371 80.4521 538.339 83.7446 534.299C84.977 532.787 84.3833 532.247 82.674 532.256L72.3018 532.238ZM55.4255 624.312H55.3535C55.3535 626.247 55.3535 628.181 55.3535 630.116C55.3535 634.616 56.622 636.065 61.6507 638C65.249 639.386 65.6628 635.885 67.399 634.4C67.8995 633.851 68.3652 633.271 68.7934 632.663C69.9359 631.43 69.693 630.341 68.6855 629.135C64.9612 624.681 61.3088 620.181 57.6025 615.708C57.1617 615.177 56.7659 614.214 55.9293 614.628C55.0927 615.042 55.4795 615.978 55.4705 616.689C55.3985 619.254 55.4255 621.783 55.4255 624.312ZM72.8955 572.493H62.6312C60.7421 572.493 59.4917 572.916 61.1649 574.985C64.2595 578.792 67.462 582.545 70.4936 586.379C71.753 587.945 72.6976 587.945 73.966 586.379C77.0156 582.536 80.1912 578.783 83.2948 574.985C83.7446 574.436 84.5272 573.905 84.1943 573.114C83.8615 572.322 82.9259 572.556 82.2332 572.547C79.1387 572.475 76.0171 572.493 72.8955 572.493ZM72.6976 609.273C75.9901 609.273 79.2826 609.273 82.5931 609.273C83.5736 609.273 85.1839 609.273 83.8705 607.591C80.515 603.379 77.0426 599.257 73.5702 595.126C72.5267 593.893 71.5012 594.289 70.5926 595.396C67.444 599.203 64.2955 602.992 61.1559 606.826C59.8425 608.437 60.4452 609.264 62.3793 609.283C65.8068 609.273 69.2432 609.273 72.6976 609.273ZM71.798 612.684V612.369H61.9925C59.9594 612.369 59.5726 613.107 60.895 614.7C64.1155 618.606 67.354 622.485 70.5026 626.445C71.825 628.1 72.8775 627.803 74.047 626.364C76.9617 622.764 79.9123 619.245 82.818 615.663C83.3577 615.006 84.2123 614.259 83.6276 613.323C83.0429 612.387 82.0443 612.702 81.1717 612.693C78.0412 612.684 74.9106 612.702 71.789 612.702L71.798 612.684ZM138.601 616.365C138.601 628.064 138.601 639.692 138.601 651.364C138.601 652.471 138.215 654.172 139.735 654.388C141.534 654.649 141.273 652.849 141.246 651.805C140.76 635.39 142.533 618.939 140.257 602.56C140.118 601.23 140.237 599.885 140.608 598.6C141.867 593.452 141.552 588.224 140.715 583.058C140.554 582.068 140.428 580.205 139.006 580.358C138.215 580.43 138.592 582.158 138.592 583.184C138.574 594.253 138.592 605.323 138.592 616.383L138.601 616.365ZM147.759 632.267C147.759 638.396 147.759 644.525 147.759 650.653C147.759 651.895 147.462 653.713 149.405 653.722C151.034 653.722 150.917 652.102 150.926 650.968C150.926 638.711 150.926 626.454 150.926 614.196C150.926 613.035 150.863 611.496 149.235 611.55C147.606 611.604 147.804 613.224 147.795 614.331C147.732 620.325 147.75 626.31 147.75 632.285L147.759 632.267ZM64.3494 461.214L63.5218 461.385C63.8007 461.682 64.0346 462.078 64.4214 462.285C65.321 462.744 66.3465 463.104 67.3091 463.518C85.1839 471.212 103.041 478.943 120.943 486.556C122.58 487.249 125.225 489.508 125.971 487.78C127.078 485.215 123.605 485.008 121.896 484.316C103.586 476.84 85.2469 469.442 66.8773 462.123C66.0497 461.79 65.195 461.511 64.3494 461.214ZM71.9959 634.373C70.4396 635.201 69.576 636.821 68.3976 638.108C66.8503 639.773 67.2281 640.916 69.2972 641.708C72.8955 643.103 76.4399 644.596 80.0293 645.991C80.623 646.225 81.4236 646.891 81.9004 645.991C82.0623 645.667 81.5945 644.893 81.2437 644.462C78.8058 641.474 76.323 638.513 73.8311 635.57C73.3723 635.048 72.9765 634.346 71.9959 634.373ZM93.586 508.785C93.0643 506.499 94.7375 503.133 92.5785 502.144C90.2666 501.082 89.0431 504.6 87.181 505.941C84.8331 507.669 84.7341 509.433 87.181 511.17C88.9802 512.484 90.1136 515.994 92.5785 514.968C94.6835 514.086 93.0463 510.891 93.577 508.785H93.586ZM74.7757 501.73C73.8761 501.73 73.3723 502.206 73.3633 502.8C73.3633 506.652 73.3093 510.504 73.4173 514.347C73.4299 514.534 73.4898 514.716 73.5912 514.874C73.6927 515.032 73.8325 515.162 73.9976 515.252C74.1627 515.342 74.3478 515.388 74.5357 515.388C74.7236 515.387 74.9083 515.338 75.0725 515.247C77.6929 513.824 79.8433 511.67 81.2617 509.046C82.2153 507.165 79.7054 506.175 78.5629 504.942C77.4205 503.709 76.4399 502.126 74.7667 501.73H74.7757ZM71.897 508.533C71.1503 506.499 73.0844 503.133 70.7905 502.081C68.4965 501.028 67.1921 504.501 65.393 505.887C63.108 507.642 62.9641 509.487 65.393 511.287C67.1921 512.646 68.3256 516.129 70.8445 515.013C72.8955 514.086 71.3392 510.9 71.888 508.533H71.897ZM49.5422 508.416C49.0564 506.256 50.6307 503.016 48.6426 502.117C46.1598 501.01 45.1252 504.6 43.2451 505.86C43.1282 505.941 43.0472 506.085 42.9302 506.175C40.9781 507.669 40.6903 509.217 42.8223 510.801C44.7744 512.25 45.9978 515.94 48.5257 514.959C50.7387 514.095 48.9665 510.648 49.5332 508.416H49.5422ZM117.155 508.758C117.857 510.882 115.905 514.212 118.451 515.103C120.709 515.895 122.049 512.574 123.848 511.152C125.926 509.514 126.16 507.795 123.902 506.148C121.959 504.735 120.754 501.055 118.19 502.135C116.022 503.079 117.704 506.454 117.146 508.758H117.155ZM115.833 508.65C115.878 508.051 115.878 507.449 115.833 506.85C115.59 505.149 116.732 502.728 114.807 501.928C112.882 501.127 111.92 503.583 110.597 504.681C109.825 505.391 109.101 506.152 108.429 506.958C108.133 507.189 107.896 507.488 107.74 507.829C107.583 508.171 107.511 508.545 107.53 508.92C107.692 510 113.332 515.643 114.178 515.328C117.191 514.185 115.239 511.476 115.806 509.541C115.853 509.246 115.859 508.947 115.824 508.65H115.833ZM97.3103 501.91C95.88 501.721 95.5652 502.575 95.5112 503.52C95.4302 505.761 95.3313 508.02 95.4572 510.243C95.5472 511.935 94.6026 514.347 96.5097 515.121C98.4168 515.895 99.4694 513.519 100.648 512.322C101.826 511.125 104.318 510.09 103.347 508.2C101.882 505.639 99.8088 503.478 97.3103 501.91ZM51.4313 508.146C51.4313 508.659 51.4313 508.812 51.4313 508.956C51.8002 511.053 50.2439 514.14 52.5378 515.04C54.8318 515.94 55.8663 512.682 57.5845 511.44C60.1034 509.586 60.1394 507.759 57.5845 505.932C55.7853 504.69 54.7148 501.28 52.6638 502.072C50.118 503.007 51.9261 506.301 51.4044 508.146H51.4313ZM147.786 554.197C147.786 556.572 147.741 558.948 147.786 561.324C147.786 562.359 147.975 563.565 149.405 563.511C150.512 563.511 150.809 562.467 150.818 561.567C150.86 556.665 150.86 551.764 150.818 546.862C150.818 545.962 150.539 544.99 149.405 544.927C147.957 544.846 147.768 546.016 147.741 547.06C147.741 549.436 147.786 551.821 147.786 554.197ZM30.9027 508.065C30.9027 508.686 30.9027 508.965 30.9027 509.28C31.0647 511.017 30.1381 513.78 31.3885 514.284C33.2956 515.076 34.2132 512.295 35.6346 511.161C37.2718 509.847 38.4593 508.362 36.1563 506.526C34.5641 505.257 33.1697 502.215 31.6584 502.755C29.8592 503.43 31.3166 506.445 30.9027 508.065ZM39.3589 501.415C38.6122 501.415 37.8656 501.361 37.1279 501.415C36.3902 501.469 35.1218 501.01 34.762 502.009C34.4021 503.007 35.5806 503.439 36.1114 504.105C36.3793 504.452 36.6806 504.772 37.0109 505.059C37.9645 505.806 38.6662 507.687 40.2225 506.355C41.6348 505.14 43.9648 503.997 43.7219 502.117C43.542 500.74 41.149 501.64 39.7637 501.406C39.629 501.389 39.4927 501.392 39.3589 501.415ZM83.9874 501.415C82.4671 501.415 81.2887 501.415 80.0922 501.415C79.5525 501.415 78.5539 501.415 78.7608 502.144C79.2196 503.772 80.8299 504.582 81.9004 505.797C82.4671 506.445 83.1958 507.327 84.1314 506.517C85.5797 505.257 87.9726 503.979 87.8287 502.332C87.6398 500.38 85.067 501.964 83.9874 501.424V501.415ZM82.9169 515.679C84.4372 515.679 85.6157 515.679 86.7852 515.679C87.3699 515.679 88.2155 515.418 87.9276 514.779C87.0063 513.102 85.6911 511.675 84.0954 510.621C82.9169 509.721 82.2242 510.972 81.5855 511.674C80.605 512.736 78.5449 513.798 78.9408 514.914C79.5795 516.705 81.8374 515.247 82.9169 515.679ZM38.8371 515.679C40.3844 515.679 41.5359 515.724 42.7413 515.679C43.1191 515.679 43.8028 515.373 43.8118 515.184C43.8928 513.645 42.5074 513.024 41.6168 512.151C40.7262 511.278 39.9976 509.532 38.4413 510.855C37.0289 512.061 34.645 513.348 34.9149 515.004C35.1848 516.66 37.7576 515.31 38.8641 515.679H38.8371ZM106.252 501.433C104.606 501.433 103.41 501.433 102.222 501.433C101.637 501.433 100.756 501.658 101.017 502.332C101.754 504.132 103.356 505.383 104.858 506.562C106.045 507.462 106.819 506.229 107.377 505.491C108.276 504.249 110.714 503.493 110.004 501.838C109.59 500.776 107.287 501.559 106.279 501.442L106.252 501.433ZM66.1756 502.278C66.1751 502.134 66.1508 501.992 66.1036 501.856C65.7888 501.199 57.5126 501.19 57.1077 501.856C57.0236 501.977 56.9655 502.115 56.9368 502.26C56.8109 503.034 60.6251 506.832 61.5157 506.814C62.1994 506.796 66.2116 502.926 66.2026 502.287L66.1756 502.278ZM147.75 601.984C148.137 603.37 146.851 606.547 149.244 606.484C152.05 606.484 150.566 603.235 150.917 601.399C150.99 600.798 150.957 600.188 150.818 599.599C150.638 598.492 150.881 596.899 149.172 596.962C147.462 597.025 147.876 598.663 147.759 599.779C147.696 600.427 147.75 601.03 147.75 601.984ZM105.281 515.814C106.621 515.112 109.329 516.894 109.518 514.5C109.644 512.907 107.377 511.413 105.695 510.441C105.02 510.054 100.702 514.257 101.098 514.878C102.078 516.453 103.787 515.391 105.281 515.814ZM61.5157 515.814C62.8471 515.229 64.7992 516.642 65.6268 514.617C65.9417 513.834 62.1814 510.612 61.2548 510.693C60.3283 510.774 56.6849 514.293 57.0538 514.878C58.1873 516.579 60.0314 515.256 61.5157 515.823V515.814ZM178.993 508.083C178.156 507.03 180.171 503.862 178.003 503.835C175.835 503.808 176.087 506.958 176.087 509.01C176.007 509.592 175.971 510.178 175.979 510.765C176.186 512.142 176.879 513.627 178.291 513.465C179.533 513.339 178.84 511.746 178.975 510.765C179.032 509.872 179.038 508.977 178.993 508.083ZM164.77 508.02C164.77 508.92 164.716 509.676 164.77 510.414C164.824 511.152 164.393 512.484 165.445 512.754C166.66 513.06 167.19 511.854 167.631 510.954C167.906 510.264 168.049 509.528 168.054 508.785C168.189 506.859 167.613 504.537 165.76 504.537C163.907 504.537 165.193 506.913 164.743 508.02H164.77ZM156.611 508.848C156.653 508.189 156.653 507.528 156.611 506.868C156.485 505.968 157.052 504.393 155.712 504.294C154.371 504.195 153.849 505.527 153.697 506.769C153.625 507.345 153.769 507.939 153.751 508.569C153.751 510.306 153.346 512.871 155.55 512.772C157.547 512.628 156.071 510.018 156.584 508.848H156.611ZM178.957 526.361C178.57 525.155 179.857 522.347 177.311 522.437C175.17 522.509 176.519 525.137 176.195 526.586C176.047 527.317 176.047 528.069 176.195 528.8C176.216 529.024 176.282 529.241 176.389 529.44C176.496 529.638 176.641 529.812 176.816 529.953C176.991 530.094 177.193 530.199 177.409 530.26C177.626 530.322 177.852 530.339 178.075 530.312C178.975 530.177 178.903 529.205 178.975 528.512C178.993 527.891 178.93 527.288 178.93 526.361H178.957ZM141.012 561.621C140.648 559.382 139.951 557.21 138.943 555.178C138.736 557.211 138.691 559.254 138.619 561.297C138.58 562.029 138.595 562.763 138.664 563.493C138.772 563.876 138.932 564.243 139.141 564.582C139.53 564.429 139.904 564.24 140.257 564.015C140.588 563.723 140.831 563.344 140.96 562.921C141.089 562.499 141.097 562.049 140.985 561.621H141.012ZM188.259 509.586C186.855 509.721 187.152 510.846 187.233 511.593C187.368 512.916 186.496 514.923 188.655 515.193C189.995 515.355 189.851 513.762 190.022 512.808C190.17 512.145 190.07 511.45 189.74 510.856C189.41 510.262 188.873 509.81 188.232 509.586H188.259ZM126.277 504.186C126.403 502.386 126.07 501.253 124.208 501.433C123.587 501.496 122.328 501.361 122.832 502.332C123.468 503.462 124.402 504.395 125.53 505.032C126.223 505.482 126.205 504.456 126.25 504.195L126.277 504.186ZM125.485 512.034C124.442 512.808 123.227 513.627 122.958 514.905C122.733 515.967 123.947 515.625 124.568 515.634C126.241 515.634 126.367 514.455 126.286 513.222C126.241 512.7 126.412 511.998 125.458 512.079L125.485 512.034ZM141.381 548.455C141.147 547.276 141.75 545.944 140.563 545.458C139.843 545.161 139.663 546.124 139.87 546.655C140.23 547.753 140.086 549.031 141.03 549.922C141.138 549.373 141.273 548.824 141.354 548.464L141.381 548.455ZM58.9339 458.982C58.481 458.782 58.0114 458.622 57.5305 458.505C57.1707 458.442 56.9908 458.811 57.2607 458.982C57.7267 459.287 58.2406 459.512 58.781 459.648C59.1408 459.747 59.2578 459.468 58.9339 458.982ZM167.001 522.266C166.858 522.446 166.57 522.698 166.615 522.788C166.66 522.878 166.974 523.112 167.172 523.274L167.604 522.716C167.406 522.581 167.208 522.428 167.001 522.284V522.266ZM167.1 501.568L166.561 501.991C166.732 502.171 166.875 502.431 167.091 502.503C167.307 502.575 167.415 502.242 167.586 502.089L167.1 501.568Z" fill="url(#paint1_linear_0_1)" fill-opacity="0.1"/>
    </g>
    <path d="M251.963 816.646C270.639 843.993 288.984 814.316 313.572 810.262C338.16 806.208 364.066 786.068 389.148 751.506C414.229 716.944 437.767 668.953 457.815 611.499C477.864 554.045 493.847 488.779 504.444 421.094C515.041 353.408 519.947 285.248 518.758 222.247C517.568 159.245 510.317 103.212 497.603 58.7771C484.889 14.3423 467.078 -17.2173 445.642 -33.2937C424.205 -49.3702 418.154 -13.3319 392.719 2.49263C392.719 2.49263 372.69 213.595 346.9 376.585C318.047 558.931 251.963 816.646 251.963 816.646Z" fill="url(#paint2_linear_0_1)"/>
    <path d="M315.189 2.08337C320.463 -18.8915 300.045 -21.2505 288.852 -35.9391C277.659 -50.6278 258.681 -60.983 233.487 -66.1487C208.293 -71.3144 177.606 -71.1424 143.962 -65.6468C110.319 -60.1512 74.685 -49.4899 40.0059 -34.5441C5.32686 -19.5982 -27.4017 -0.796891 -55.4745 20.3058C-83.5473 41.4085 -106.158 64.2067 -121.439 86.816C-136.719 109.425 -144.23 131.197 -143.351 150.33C-142.472 169.464 -123.852 161.772 -107.007 173.214C-107.007 173.214 -3.80252 118.128 79.8102 82.3139C173.352 42.2471 315.189 2.08337 315.189 2.08337Z" fill="url(#paint3_linear_0_1)"/>
    <path d="M-126.433 469.922C-149.3 478.461 -139.383 499.051 -146.549 518.939C-153.715 538.827 -152.177 563.205 -142.062 590.06C-131.947 616.914 -113.546 645.473 -88.3798 673.376C-63.2134 701.279 -32.0043 727.725 2.66817 750.529C37.3406 773.332 74.4807 791.838 111.019 804.517C147.557 817.196 182.443 823.683 212.796 823.443C243.148 823.203 268.093 816.243 285.571 803.137C303.049 790.032 284.746 777.574 285.498 754.491C285.498 754.491 172.334 693.438 88.9453 638.316C-4.346 576.648 -126.433 469.922 -126.433 469.922Z" fill="url(#paint4_linear_0_1)"/>
    <defs>
        <linearGradient id="paint0_linear_0_1" x1="864" y1="0" x2="864" y2="861" gradientUnits="userSpaceOnUse">
            <stop stop-color="#9FBBD9"/>
            <stop offset="1" stop-color="#467CB6"/>
        </linearGradient>
        <linearGradient id="paint1_linear_0_1" x1="-1791.05" y1="1410.02" x2="11027.7" y2="41971.6" gradientUnits="userSpaceOnUse">
            <stop stop-color="#005DB9"/>
            <stop offset="1" stop-color="#F8B80C"/>
        </linearGradient>
        <linearGradient id="paint2_linear_0_1" x1="317.093" y1="677.485" x2="386.608" y2="-11.8922" gradientUnits="userSpaceOnUse">
            <stop stop-color="#447AB5"/>
            <stop offset="0.972911" stop-color="#A0BCDA"/>
        </linearGradient>
        <linearGradient id="paint3_linear_0_1" x1="410.487" y1="75.0802" x2="416.223" y2="-63.1308" gradientUnits="userSpaceOnUse">
            <stop stop-color="#A0BCDA"/>
            <stop offset="0.972911" stop-color="#295B8C"/>
        </linearGradient>
        <linearGradient id="paint4_linear_0_1" x1="-121.481" y1="508.449" x2="265.205" y2="696.154" gradientUnits="userSpaceOnUse">
            <stop stop-color="#3269A5"/>
            <stop offset="0.972911" stop-color="#598DC6"/>
        </linearGradient>
        <clipPath id="clip0_0_1">
            <rect width="426" height="426" fill="white" transform="translate(-81 289)"/>
        </clipPath>
    </defs>
</svg>
