<svg width="1728" height="861" viewBox="0 0 1728 861" fill="none" xmlns="http://www.w3.org/2000/svg">
    <path d="M0 0H1728V861H0V0Z" fill="url(#paint0_linear_47_142)"/>
    <g clip-path="url(#clip0_47_142)">
        <path d="M393.482 277.055C400.305 277.055 407.129 276.928 413.938 277.055C423.375 277.281 428.066 282.1 428.334 291.612C428.475 298.198 428.447 304.798 428.334 311.398C428.264 315.271 429.351 317.419 433.731 317.885C445.649 319.21 457.429 321.575 468.936 324.952C473.513 326.266 475.293 324.754 476.791 320.825C479.207 314.451 481.863 308.105 484.646 301.929C487.881 294.707 494.055 291.683 501.401 294.552C515.632 300.12 529.721 306.028 543.67 312.274C550.239 315.214 552.457 321.447 549.928 328.23C547.3 335.297 544.418 342.25 541.268 349.077C539.53 352.85 541.028 354.532 544.094 356.341C554.061 362.125 563.602 368.615 572.645 375.76C575.47 378.063 577.363 377.738 579.709 375.237C584.766 369.994 590.036 364.934 595.249 359.874C600.9 354.391 607.808 353.755 613.501 359.196C624.568 369.739 635.351 380.574 645.853 391.702C651.179 397.355 650.529 403.814 644.765 409.99C639.792 415.318 634.593 420.448 629.324 425.536C627.035 427.727 626.668 429.423 628.801 432.052C634.655 439.426 639.99 447.199 644.765 455.314C647.011 459.031 649.483 459.908 653.482 457.929C659.584 454.905 665.857 452.205 672.144 449.548C679.815 446.326 686.271 448.418 689.775 456.035C696.075 469.448 702.037 483.015 707.829 496.654C710.923 503.918 708.437 510.122 701.246 513.726C694.945 516.878 688.531 519.747 681.934 522.347C677.696 524.015 677.032 526.276 678.289 530.474C682.242 543.513 685.049 556.872 686.681 570.4C687.26 575.247 689.591 576.759 694.126 576.604C700.229 576.392 706.36 576.434 712.491 576.604C723.073 576.873 727.622 581.381 727.706 591.74C727.82 605.157 727.82 618.57 727.706 631.977C727.706 642.648 722.833 647.255 712.011 647.354C705.428 647.354 698.844 647.439 692.233 647.354C688.814 647.354 687.105 648.682 686.723 652.216C685.31 664.347 682.934 676.346 679.617 688.099C678.586 691.83 679.405 693.625 683.064 694.954C689.238 697.201 695.256 699.914 701.317 702.487C711.206 706.727 713.72 712.38 709.793 722.075C704.613 734.955 699.292 747.774 693.829 760.531C690.269 768.855 683.841 771.47 675.464 768.205C669.12 765.718 662.749 763.174 656.618 760.262C652.507 758.312 650.218 759.4 648.057 763.089C642.326 773.098 635.857 782.664 628.702 791.708C626.385 794.606 626.795 796.401 629.352 798.775C634.523 803.566 639.594 808.484 644.426 813.629C651.066 820.695 651.108 827.168 644.426 834.065C634.744 844.015 624.925 853.823 614.97 863.49C607.822 870.387 601.309 870.132 594.02 863.08C589.287 858.501 584.54 853.922 580.104 849.046C577.392 846.064 575.386 845.513 571.938 848.24C562.163 856.016 551.768 862.978 540.858 869.058C537.454 870.952 536.86 873.001 538.414 876.478C541.24 882.697 543.74 889.042 546.17 895.416C549.773 904.843 547.258 910.581 537.821 914.496C525.445 919.626 513.042 924.714 500.567 929.618C490.438 933.604 484.575 931.032 480.365 921.04C477.907 915.188 475.421 909.323 473.301 903.359C471.889 899.628 470.066 898.102 465.913 899.246C455.244 902.139 444.387 904.283 433.42 905.663C429.464 906.186 428.292 908.108 428.348 911.726C428.447 918.552 428.475 925.378 428.348 932.205C428.122 941.306 423.474 946.21 414.32 946.338C399.976 946.611 385.627 946.611 371.274 946.338C362.614 946.182 357.952 941.264 357.669 932.487C357.443 925.675 357.471 918.835 357.669 912.023C357.74 908.08 356.483 906.115 352.188 905.592C340.512 904.192 328.966 901.862 317.661 898.625C313.21 897.339 310.795 898.073 309.184 902.695C307.009 908.899 304.324 914.934 301.584 920.926C297.755 929.265 291.695 931.837 283.218 928.431C270.343 923.277 257.544 917.93 244.82 912.39C235.411 908.292 233.193 902.497 236.951 893.084C239.395 886.965 241.91 880.874 244.594 874.867C246.007 871.616 246.106 869.44 242.517 867.362C232.325 861.471 222.567 854.859 213.316 847.576C210.632 845.456 208.965 845.923 206.789 848.212C201.929 853.328 196.9 858.317 191.843 863.207C184.652 870.147 178.097 870.274 170.892 863.207C161.116 853.682 151.495 844.001 141.945 834.263C135.008 827.196 134.994 820.384 141.789 813.289C146.508 808.371 151.283 803.481 156.284 798.86C158.982 796.358 159.689 794.521 157.118 791.313C151.366 784.184 146.171 776.624 141.577 768.7C139.43 764.969 137.127 763.838 133.016 765.873C126.927 768.926 120.641 771.611 114.34 774.198C105.864 777.717 99.6617 775.498 95.7767 767.131C89.7396 754.119 83.9238 741.004 78.3294 727.785C74.8965 719.687 77.397 713.779 85.5202 709.921C91.6797 706.995 97.8958 704.197 104.197 701.596C107.813 700.183 109.226 698.388 107.94 694.162C103.736 680.469 100.739 666.433 98.9836 652.216C98.5597 648.668 96.8786 647.311 93.4739 647.354C86.8906 647.425 80.3072 647.354 73.6956 647.354C62.86 647.269 58.0567 642.633 58.0143 631.991C57.9484 618.574 57.9484 605.162 58.0143 591.755C58.0991 581.664 62.5492 577.028 72.5654 576.675C79.3748 576.434 86.2124 576.491 93.0218 576.59C96.7656 576.59 98.5174 575.177 98.9553 571.304C100.36 559.609 102.732 548.051 106.047 536.749C107.262 532.509 106.386 530.276 102.134 528.721C95.7343 526.375 89.4194 523.648 83.2881 520.793C74.8117 516.835 72.41 511.083 75.9136 502.42C81.0654 489.587 86.4008 476.787 91.9199 464.02C95.819 455.004 102.275 452.474 111.345 456.148C117.66 458.706 124.06 461.236 130.177 464.119C133.497 465.66 135.22 464.812 136.915 461.787C142.721 451.534 149.334 441.761 156.694 432.56C159.18 429.423 158.7 427.444 155.973 424.914C150.986 420.265 146.169 415.417 141.493 410.456C134.839 403.39 134.74 396.889 141.422 390.006C151.255 379.868 161.224 369.876 171.33 360.03C177.772 353.769 184.694 354.122 191.179 360.468C196.222 365.4 201.35 370.262 206.224 375.35C208.696 377.936 210.561 377.922 213.288 375.717C223.047 367.92 233.443 360.956 244.368 354.899C248.451 352.681 248.818 350.32 247.01 346.42C244.269 340.441 241.91 334.279 239.607 328.047C236.372 319.412 238.858 313.221 247.25 309.674C260.257 304.219 273.334 298.923 286.482 293.788C295.057 290.425 301.047 292.94 304.847 301.378C307.673 307.596 310.258 313.904 312.603 320.302C314.016 324.075 315.923 325.347 320.048 324.231C330.685 321.204 341.552 319.058 352.541 317.814C356.525 317.419 357.683 315.369 357.627 311.751C357.528 305.406 357.556 299.032 357.627 292.686C357.754 281.846 362.402 277.14 373.068 276.998C379.835 276.984 386.658 277.041 393.482 277.055ZM257.294 726.866C257.294 701.427 257.294 675.987 257.294 650.633C257.294 647.665 258.707 642.831 253.565 643.156C246.996 643.566 239.098 639.256 234.182 646.054C232.162 648.88 230.636 649.841 227.74 649.841C212.2 649.841 196.66 649.7 181.12 649.926C175.794 649.997 174.169 647.806 174.24 642.761C174.452 629.122 174.24 615.47 174.325 601.775C174.325 595.104 174.748 594.708 181.713 594.708C186.361 594.708 190.274 594.002 193.933 590.666C213.231 573.085 232.755 555.744 252.138 538.247C260.007 531.181 259.936 531.053 270.504 535.265C286.42 541.672 302.337 548.088 318.254 554.514C338.098 562.485 357.956 570.442 377.829 578.385C383.649 580.703 383.692 580.618 383.988 574.809C383.988 573.636 384.059 572.463 384.059 571.276C384.059 539.745 384.059 508.214 383.904 476.684C383.904 472.076 384.977 468.614 388.566 465.575C395.022 460.091 401.393 454.495 407.369 448.517C412.37 443.513 418.219 445.096 423.941 445.337C425.862 445.421 426.54 447.202 426.667 448.941C426.808 451.046 426.837 453.18 426.837 455.286C426.837 499.989 426.837 544.706 426.837 589.409C426.837 592.334 425.057 597.747 429.097 597.662C432.798 597.591 430.99 592.15 431.004 589.182C431.131 544.946 431.075 500.724 431.089 456.488C431.089 454.141 431.089 451.781 431.244 449.421C431.386 446.594 432.94 445.379 435.737 445.04C442.207 444.248 443.917 445.662 443.917 452.771C443.917 499.127 443.945 545.483 444.001 591.839C444.001 594.666 442.476 599.542 446.177 599.655C451.037 599.81 449.002 594.624 449.002 591.825C449.158 549.709 449.101 507.578 449.101 465.462C449.101 460.515 449.243 455.569 449.101 450.636C448.96 445.704 451.927 444.983 455.939 444.983C459.951 444.983 461.858 447.033 461.802 451.046C461.576 467.257 461.59 483.467 461.477 499.678C461.307 526.531 461.774 553.27 461.152 580.067C461.025 585.72 462.24 591.302 461.364 597.026C461.262 597.37 461.238 597.732 461.293 598.086C461.348 598.44 461.481 598.777 461.682 599.073C461.884 599.37 462.149 599.617 462.458 599.799C462.767 599.98 463.112 600.09 463.469 600.121C465.249 600.291 465.941 598.948 466.068 597.45C466.238 595.344 466.238 593.21 466.238 591.104C466.238 546.161 466.238 501.219 466.238 456.276C466.238 454.156 466.238 452.036 466.238 449.93C466.238 446.778 467.651 445.365 470.914 445.082C477.61 444.489 478.995 445.789 478.995 453.746C478.995 502.448 478.995 551.155 478.995 599.867C478.987 602.445 479.172 605.019 479.546 607.569C479.606 608.164 479.877 608.718 480.309 609.13C480.742 609.542 481.308 609.786 481.905 609.817C483.6 609.732 483.205 608.106 483.219 607.075C483.304 600.489 483.289 593.903 483.289 587.289C483.289 542.591 483.289 497.883 483.289 453.166C483.289 445.549 483.939 444.983 491.173 445.026C498.109 445.026 498.674 445.648 498.674 453.505C498.674 492.795 498.674 532.09 498.674 571.389C498.674 574.682 498.674 577.975 498.674 581.282C498.674 582.399 498.363 583.84 499.635 584.405C500.906 584.971 501.754 583.727 502.587 582.992C507.334 578.752 512.067 574.512 516.715 570.272C518.848 568.308 520.953 566.711 524.103 566.711C553.743 566.711 583.377 566.711 613.007 566.711C617.344 566.711 618.742 568.605 618.658 572.732C618.46 579.544 618.658 586.384 618.658 593.196C618.587 600.461 618.403 600.673 611.043 600.701C593.172 600.701 575.287 600.701 557.359 600.771C554.957 600.771 551.623 599.98 551.355 603.852C551.044 608.163 554.505 607.838 557.274 607.852C567.616 607.923 577.971 607.852 588.354 607.852C596.591 607.852 604.813 607.951 613.049 607.852C617.287 607.852 619.011 609.605 618.559 613.859C618.107 618.113 615.083 617.703 612.3 617.703C594.895 617.703 577.491 617.703 560.029 617.703C558.15 617.703 556.271 617.703 554.378 617.872C553.921 617.902 553.476 618.027 553.07 618.239C552.664 618.451 552.306 618.745 552.021 619.102C551.735 619.46 551.527 619.874 551.41 620.317C551.293 620.759 551.269 621.222 551.341 621.674C551.341 623.879 552.259 625.32 554.562 625.49C556.865 625.66 558.8 625.702 560.905 625.702C578.07 625.702 595.249 625.702 612.413 625.702C617.979 625.702 619.618 627.681 618.672 632.246C617.824 636.372 614.504 635.468 611.919 635.482C594.048 635.581 576.163 635.482 558.235 635.609C555.41 635.609 551.313 634.662 551.524 639.482C551.722 643.722 555.537 642.379 558.108 642.676C559.284 642.739 560.463 642.739 561.64 642.676C578.338 642.676 595.037 642.803 611.735 642.605C616.779 642.605 619.096 644.018 618.799 649.417C618.474 655.989 618.799 662.589 618.799 669.203C618.799 675.818 618.149 676.397 611.382 676.44C597.509 676.539 583.622 676.44 569.749 676.44C567.862 676.419 565.976 676.499 564.098 676.68C562.6 676.849 561.4 677.598 561.357 679.323C561.315 681.047 562.558 681.796 564.041 681.937C565.906 682.121 567.799 682.149 569.692 682.149C584.046 682.149 598.385 682.149 612.738 682.149C616.581 682.149 619.336 683.011 618.601 687.718C618.008 691.491 615.013 690.884 612.555 690.898C598.201 690.982 583.862 690.898 569.509 690.968C567.622 690.937 565.736 691.012 563.858 691.194C563.497 691.185 563.139 691.254 562.809 691.397C562.478 691.54 562.183 691.753 561.943 692.022C561.703 692.292 561.526 692.61 561.422 692.955C561.318 693.301 561.291 693.664 561.343 694.021C561.37 694.617 561.618 695.182 562.039 695.605C562.459 696.028 563.022 696.28 563.618 696.311C565.247 696.532 566.89 696.64 568.534 696.636C582.661 696.636 596.789 696.438 610.916 696.763C616.369 696.89 618.672 694.756 620.367 689.696C636.006 643.057 637.772 595.91 624.845 548.635C591.929 428.236 471.705 349.218 342.44 376.933C218.36 403.545 137.565 519.917 155.196 645.7C164.492 712.041 197.395 765.11 250.725 805.516C252.336 806.746 254.031 809.092 256.094 808.188C258.156 807.283 257.294 804.428 257.309 802.435C257.327 777.231 257.323 752.042 257.294 726.866ZM357.514 745.903V741.663C357.514 711.334 357.514 681 357.514 650.661C357.514 648.202 358.545 644.753 355.691 643.594C351.224 642.004 346.357 641.935 341.847 643.397C338.018 644.57 339.643 648.668 339.643 651.467C339.577 713.313 339.577 775.154 339.643 836.991C339.643 846.347 339.643 846.347 349.023 848.141C356.751 849.64 357.5 849.032 357.5 841.075C357.509 809.37 357.514 777.646 357.514 745.903ZM352.287 600.814C360.975 600.814 369.663 600.814 378.366 600.814C380.146 600.814 382.604 601.365 383.254 599.075C384.087 596.249 381.332 595.768 379.496 594.977C349.094 581.833 318.692 568.727 288.29 555.659C287.075 555.136 285.563 553.751 284.461 555.009C283.359 556.267 285.055 557.454 285.874 558.401C296.766 571.007 307.814 583.515 318.664 596.235C319.878 597.807 321.46 599.058 323.271 599.876C325.081 600.694 327.065 601.055 329.047 600.927C336.775 600.63 344.531 600.814 352.287 600.814ZM387.605 764.757V811.975C387.605 823.281 387.605 834.588 387.605 845.795C387.605 847.93 386.856 851.35 390.247 851.223C393.637 851.095 392.338 847.703 392.691 845.569C392.712 845.334 392.712 845.098 392.691 844.863C392.691 791.76 392.691 738.667 392.691 685.584C392.691 683.252 393.835 679.252 390.402 679.181C386.249 679.097 387.676 683.421 387.662 685.824C387.506 712.125 387.563 738.399 387.563 764.7L387.605 764.757ZM257.323 576.788C257.323 570.682 257.323 564.577 257.323 558.485C257.323 557.157 257.902 555.291 256.475 554.67C254.836 553.963 254.243 555.913 253.438 556.931C244.735 567.997 236.089 579.106 227.387 590.172C225.381 592.73 223.46 595.076 229.068 594.878C231.328 594.807 233.306 595.373 233.829 598.016C234.352 600.658 236.654 600.771 238.844 600.842C243.082 600.927 247.321 600.842 251.559 600.927C255.797 601.012 257.535 599.372 257.393 595.104C257.21 588.886 257.28 582.78 257.28 576.675L257.323 576.788ZM479.122 739.854C479.122 769.237 479.122 798.605 479.207 827.988C479.207 830.292 477.723 834.503 480.789 834.602C484.632 834.729 482.936 830.362 483.431 827.832C483.452 827.597 483.452 827.361 483.431 827.126C483.431 768.379 483.431 709.624 483.431 650.859C483.431 648.499 484.575 644.259 481.58 644.245C477.695 644.245 479.291 648.598 479.277 651.014C479.009 680.524 479.108 710.133 479.108 739.741L479.122 739.854ZM373.167 764.856C373.167 791.887 373.167 818.929 373.167 845.979C373.167 847.873 372.39 850.968 375.47 850.897C377.9 850.897 377.137 848.071 377.349 846.262C377.406 845.32 377.406 844.377 377.349 843.435C377.349 791.228 377.325 739.025 377.278 686.827C377.278 684.269 378.606 679.761 375.328 679.634C371.726 679.535 373.167 684.057 373.153 686.545C373.139 712.535 373.181 738.639 373.195 764.743L373.167 764.856ZM272.142 687.873C272.142 695.872 272.142 703.881 272.142 711.899C272.142 712.79 271.846 713.949 272.849 714.387C273.852 714.825 274.473 713.779 275.038 713.115C281.028 705.865 286.934 698.558 292.994 691.364C294.859 689.159 294.873 687.506 292.994 685.273C286.934 678.093 281.057 670.758 275.081 663.494C274.53 662.815 273.979 661.741 272.919 662.165C271.86 662.589 272.171 663.748 272.171 664.638C272.156 672.242 272.171 680.001 272.171 687.76L272.142 687.873ZM272.142 750.906H272.058C272.058 758.665 272.058 766.453 272.058 774.183C272.058 775.06 272.185 776.36 272.736 776.727C274.148 777.66 274.742 776.106 275.42 775.314C281.297 768.248 287.103 761.181 292.98 754.115C293.378 753.759 293.697 753.324 293.915 752.837C294.133 752.35 294.246 751.822 294.246 751.288C294.246 750.754 294.133 750.226 293.915 749.739C293.697 749.252 293.378 748.817 292.98 748.461C286.962 741.239 281.085 733.904 275.109 726.654C274.558 725.976 273.456 725.015 272.962 725.241C271.549 725.707 272.128 727.234 272.128 728.294C272.213 735.742 272.241 743.218 272.241 750.793L272.142 750.906ZM324.526 751.599C324.526 743.882 324.526 736.152 324.526 728.435C324.526 727.375 324.993 725.82 323.439 725.608C322.845 725.524 321.941 726.583 321.376 727.276C315.57 734.342 309.834 741.409 303.971 748.391C302.361 750.313 302.106 751.811 303.844 753.86C309.707 760.842 315.4 767.993 321.207 775.06C321.885 775.879 322.619 777.42 323.919 776.685C324.993 776.077 324.512 774.565 324.512 773.42C324.64 766 324.625 758.764 324.625 751.486L324.526 751.599ZM324.654 816.017H324.47C324.47 808.484 324.47 800.966 324.47 793.404C324.47 792.062 324.95 790.323 323.241 789.744C321.984 789.32 321.136 790.549 320.415 791.412C314.892 798.139 309.467 804.937 303.901 811.622C302.205 813.657 302.417 815.24 304.042 817.176C310.074 824.384 316.008 831.691 322.012 838.941C322.436 839.45 323.128 840.156 323.636 840.1C324.922 839.973 324.668 838.687 324.668 837.867C324.781 830.489 324.753 823.197 324.753 815.904L324.654 816.017ZM324.442 688.651H324.555C324.555 681.146 324.555 673.641 324.555 666.137C324.555 665.034 324.936 663.564 323.58 663.041C322.633 662.674 321.955 663.677 321.376 664.384L303.915 685.584C302.29 687.548 302.587 689.428 304.127 691.237C309.956 698.275 315.791 705.318 321.63 712.366C322.181 713.03 322.704 714.161 323.764 713.68C324.823 713.2 324.442 712.055 324.442 711.15C324.555 703.547 324.541 696.042 324.541 688.537L324.442 688.651ZM207.185 594.694C214.757 596.842 218.939 592.687 223.022 587.204C231.865 575.36 241.161 563.842 250.273 552.196C252.152 549.794 254.088 547.433 255.924 544.988C256.122 544.731 256.26 544.432 256.329 544.114C256.397 543.797 256.394 543.468 256.32 543.151C255.868 542.43 255.091 542.925 254.554 543.349C253.268 544.367 251.997 545.412 250.768 546.501C235.397 560.294 220.036 574.098 204.684 587.91C202.622 589.762 200.715 591.797 198.723 593.733C201.492 595.825 204.614 594.072 207.326 594.581L207.185 594.694ZM287.555 601.096C291.341 601.096 295.071 601.026 298.857 601.096C301.23 601.167 302.177 600.446 300.439 598.425C292.034 588.702 283.487 579.049 275.081 569.382C274.487 568.704 273.668 567.757 272.792 568.576C272.273 569.318 272.029 570.218 272.1 571.12C272.029 575.798 271.945 580.476 272.1 585.14C272.255 589.804 270.122 596.037 273.018 599.471C276.437 603.301 282.78 599.881 287.697 600.983L287.555 601.096ZM299.027 717.482C304.197 717.482 309.368 717.482 314.567 717.482C317.463 717.482 318.805 716.846 316.488 714.005C311.261 707.659 306.02 701.285 300.849 694.926C298.928 692.551 297.444 693.201 295.806 695.236C290.946 701.271 286.029 707.278 281.113 713.256C278.09 716.945 280.28 717.496 283.557 717.496L299.027 717.482ZM298.744 658.985H282.71C279.361 658.985 279.079 660.399 281.014 662.801C286.058 668.963 291.172 675.083 296.173 681.287C297.995 683.534 299.436 683.393 301.174 681.287C306.316 674.899 311.543 668.567 316.714 662.222C318.65 659.847 317.717 658.999 315.033 659.014L298.744 658.985ZM272.241 803.58H272.128C272.128 806.619 272.128 809.657 272.128 812.696C272.128 819.762 274.12 822.038 282.017 825.076C287.668 827.253 288.318 821.755 291.045 819.423C291.831 818.561 292.562 817.65 293.234 816.696C295.029 814.759 294.647 813.049 293.065 811.155C287.216 804.16 281.48 797.093 275.66 790.069C274.968 789.235 274.346 787.723 273.032 788.373C271.718 789.023 272.326 790.493 272.312 791.609C272.199 795.637 272.241 799.609 272.241 803.58ZM299.676 722.202H283.557C280.59 722.202 278.627 722.866 281.254 726.117C286.114 732.095 291.144 737.989 295.904 744.009C297.882 746.469 299.366 746.469 301.358 744.009C306.147 737.975 311.134 732.081 316.008 726.117C316.714 725.255 317.943 724.421 317.42 723.177C316.898 721.934 315.428 722.301 314.341 722.287C309.481 722.174 304.579 722.202 299.676 722.202ZM299.366 779.964C304.536 779.964 309.707 779.964 314.906 779.964C316.446 779.964 318.974 779.964 316.912 777.321C311.642 770.707 306.189 764.234 300.736 757.747C299.097 755.811 297.487 756.432 296.06 758.171C291.115 764.149 286.171 770.099 281.24 776.12C279.178 778.649 280.124 779.95 283.162 779.978C288.544 779.964 293.941 779.964 299.366 779.964ZM297.953 785.32V784.826H282.554C279.361 784.826 278.754 785.985 280.831 788.486C285.888 794.62 290.974 800.711 295.919 806.93C297.995 809.53 299.648 809.064 301.485 806.802C306.062 801.149 310.696 795.623 315.259 789.998C316.107 788.967 317.449 787.794 316.53 786.324C315.612 784.854 314.044 785.349 312.674 785.334C307.757 785.32 302.841 785.349 297.939 785.349L297.953 785.32ZM402.863 791.101C402.863 809.474 402.863 827.733 402.863 846.064C402.863 847.802 402.255 850.473 404.643 850.813C407.468 851.222 407.058 848.396 407.016 846.756C406.253 820.978 409.036 795.143 405.462 769.421C405.244 767.332 405.431 765.22 406.013 763.202C407.991 755.118 407.496 746.907 406.182 738.794C405.928 737.24 405.73 734.314 403.498 734.555C402.255 734.668 402.848 737.381 402.848 738.992C402.82 756.376 402.848 773.759 402.848 791.129L402.863 791.101ZM417.244 816.074C417.244 825.698 417.244 835.323 417.244 844.947C417.244 846.898 416.778 849.753 419.829 849.767C422.387 849.767 422.203 847.223 422.217 845.442C422.217 826.193 422.217 806.944 422.217 787.695C422.217 785.871 422.118 783.455 419.561 783.54C417.004 783.624 417.315 786.168 417.301 787.907C417.202 797.319 417.23 806.718 417.23 816.102L417.244 816.074ZM286.256 547.448L284.956 547.716C285.394 548.183 285.761 548.804 286.369 549.129C287.781 549.85 289.392 550.416 290.903 551.066C318.974 563.149 347.017 575.29 375.131 587.246C377.702 588.334 381.855 591.882 383.028 589.168C384.765 585.14 379.312 584.815 376.628 583.727C347.874 571.987 319.073 560.37 290.225 548.875C288.926 548.352 287.583 547.914 286.256 547.448ZM298.264 819.381C295.82 820.681 294.464 823.225 292.613 825.246C290.183 827.861 290.776 829.656 294.026 830.899C299.676 833.09 305.243 835.436 310.879 837.627C311.812 837.994 313.069 839.04 313.818 837.627C314.072 837.118 313.338 835.902 312.787 835.224C308.958 830.532 305.059 825.882 301.146 821.26C300.425 820.441 299.804 819.338 298.264 819.381ZM332.169 622.155C331.35 618.565 333.978 613.279 330.587 611.725C326.956 610.057 325.035 615.583 322.111 617.689C318.423 620.402 318.268 623.172 322.111 625.9C324.936 627.963 326.716 633.475 330.587 631.864C333.893 630.479 331.322 625.462 332.155 622.155H332.169ZM302.629 611.074C301.216 611.074 300.425 611.823 300.411 612.756C300.411 618.805 300.326 624.854 300.496 630.889C300.516 631.183 300.61 631.468 300.769 631.717C300.928 631.965 301.148 632.169 301.407 632.31C301.666 632.451 301.957 632.525 302.252 632.523C302.547 632.522 302.837 632.446 303.095 632.302C307.21 630.068 310.587 626.685 312.815 622.565C314.312 619.611 310.371 618.056 308.577 616.12C306.783 614.184 305.243 611.696 302.615 611.074H302.629ZM298.108 621.759C296.936 618.565 299.973 613.279 296.371 611.626C292.768 609.972 290.72 615.427 287.894 617.604C284.306 620.36 284.08 623.257 287.894 626.084C290.72 628.218 292.5 633.687 296.455 631.935C299.676 630.479 297.232 625.476 298.094 621.759H298.108ZM263.002 621.575C262.239 618.183 264.711 613.095 261.589 611.682C257.69 609.944 256.065 615.583 253.113 617.561C252.929 617.689 252.802 617.915 252.618 618.056C249.553 620.402 249.101 622.833 252.449 625.32C255.514 627.596 257.436 633.39 261.406 631.85C264.881 630.493 262.098 625.08 262.988 621.575H263.002ZM369.183 622.112C370.285 625.448 367.219 630.677 371.217 632.076C374.763 633.32 376.868 628.105 379.694 625.872C382.957 623.299 383.324 620.6 379.779 618.014C376.727 615.795 374.834 610.014 370.808 611.71C367.403 613.194 370.045 618.494 369.169 622.112H369.183ZM367.106 621.943C367.177 621.002 367.177 620.057 367.106 619.116C366.725 616.445 368.519 612.643 365.496 611.385C362.473 610.128 360.961 613.986 358.884 615.71C357.671 616.825 356.534 618.02 355.479 619.286C355.014 619.648 354.643 620.117 354.397 620.653C354.151 621.19 354.038 621.777 354.067 622.367C354.321 624.063 363.179 632.924 364.507 632.429C369.24 630.634 366.174 626.38 367.064 623.342C367.137 622.879 367.147 622.408 367.092 621.943H367.106ZM338.018 611.357C335.772 611.06 335.277 612.403 335.193 613.887C335.065 617.406 334.91 620.953 335.108 624.444C335.249 627.101 333.766 630.889 336.761 632.104C339.756 633.32 341.409 629.589 343.259 627.709C345.11 625.829 349.023 624.204 347.498 621.236C345.198 617.213 341.942 613.82 338.018 611.357ZM265.969 621.151C265.969 621.957 265.969 622.197 265.969 622.423C266.548 625.716 264.104 630.564 267.706 631.977C271.309 633.39 272.933 628.274 275.632 626.324C279.587 623.413 279.644 620.544 275.632 617.675C272.806 615.724 271.125 610.368 267.904 611.611C263.906 613.081 266.746 618.254 265.926 621.151H265.969ZM417.287 693.47C417.287 697.201 417.216 700.932 417.287 704.663C417.287 706.288 417.583 708.182 419.829 708.098C421.567 708.098 422.033 706.458 422.047 705.045C422.113 697.347 422.113 689.649 422.047 681.951C422.047 680.538 421.609 679.012 419.829 678.913C417.555 678.786 417.258 680.623 417.216 682.262C417.216 685.993 417.287 689.739 417.287 693.47ZM233.73 621.024C233.73 621.999 233.73 622.437 233.73 622.932C233.984 625.66 232.529 629.999 234.493 630.79C237.488 632.034 238.929 627.667 241.161 625.886C243.732 623.822 245.597 621.49 241.98 618.607C239.48 616.615 237.29 611.838 234.917 612.686C232.091 613.746 234.38 618.48 233.73 621.024ZM247.01 610.58C245.837 610.58 244.665 610.495 243.506 610.58C242.348 610.665 240.356 609.944 239.791 611.513C239.226 613.081 241.076 613.76 241.91 614.806C242.331 615.35 242.804 615.852 243.323 616.304C244.82 617.477 245.922 620.43 248.366 618.339C250.584 616.431 254.243 614.636 253.862 611.682C253.579 609.52 249.821 610.933 247.646 610.566C247.434 610.54 247.22 610.545 247.01 610.58ZM317.095 610.58C314.708 610.58 312.857 610.58 310.978 610.58C310.131 610.58 308.563 610.58 308.888 611.725C309.608 614.283 312.137 615.555 313.818 617.463C314.708 618.48 315.852 619.865 317.322 618.593C319.596 616.615 323.354 614.608 323.128 612.021C322.831 608.954 318.791 611.442 317.095 610.594V610.58ZM315.414 632.981C317.802 632.981 319.653 632.981 321.489 632.981C322.407 632.981 323.735 632.571 323.283 631.567C321.836 628.935 319.771 626.694 317.265 625.038C315.414 623.625 314.327 625.589 313.324 626.691C311.784 628.359 308.548 630.027 309.17 631.779C310.173 634.592 313.719 632.302 315.414 632.981ZM246.19 632.981C248.62 632.981 250.429 633.051 252.322 632.981C252.915 632.981 253.989 632.5 254.003 632.203C254.13 629.787 251.954 628.811 250.556 627.44C249.157 626.07 248.013 623.328 245.569 625.405C243.351 627.299 239.607 629.32 240.031 631.921C240.455 634.521 244.495 632.401 246.233 632.981H246.19ZM352.061 610.608C349.475 610.608 347.596 610.608 345.732 610.608C344.813 610.608 343.429 610.961 343.839 612.021C344.997 614.848 347.512 616.812 349.871 618.664C351.736 620.077 352.951 618.141 353.827 616.982C355.239 615.032 359.068 613.844 357.952 611.244C357.302 609.576 353.685 610.806 352.103 610.622L352.061 610.608ZM289.123 611.937C289.123 611.71 289.084 611.486 289.01 611.272C288.516 610.241 275.519 610.226 274.883 611.272C274.751 611.464 274.66 611.68 274.615 611.908C274.417 613.124 280.407 619.088 281.805 619.06C282.879 619.031 289.18 612.954 289.166 611.951L289.123 611.937ZM417.23 768.516C417.838 770.693 415.817 775.682 419.575 775.583C423.983 775.583 421.652 770.481 422.203 767.597C422.318 766.653 422.265 765.697 422.047 764.771C421.765 763.033 422.146 760.531 419.462 760.63C416.778 760.729 417.428 763.301 417.244 765.054C417.145 766.071 417.23 767.018 417.23 768.516ZM350.535 633.193C352.64 632.09 356.892 634.889 357.189 631.129C357.387 628.628 353.827 626.282 351.185 624.755C350.125 624.147 343.344 630.748 343.966 631.723C345.506 634.196 348.19 632.528 350.535 633.193ZM281.805 633.193C283.896 632.274 286.962 634.493 288.262 631.313C288.756 630.083 282.851 625.024 281.396 625.151C279.941 625.278 274.219 630.804 274.798 631.723C276.578 634.394 279.474 632.316 281.805 633.207V633.193ZM466.294 621.052C464.98 619.399 468.145 614.424 464.74 614.382C461.336 614.339 461.731 619.286 461.731 622.508C461.605 623.421 461.549 624.342 461.562 625.264C461.887 627.426 462.974 629.758 465.192 629.504C467.142 629.306 466.054 626.804 466.266 625.264C466.355 623.862 466.364 622.456 466.294 621.052ZM443.959 620.953C443.959 622.367 443.874 623.554 443.959 624.713C444.044 625.872 443.366 627.963 445.019 628.387C446.926 628.868 447.759 626.974 448.451 625.561C448.883 624.477 449.108 623.321 449.115 622.155C449.327 619.13 448.423 615.484 445.513 615.484C442.603 615.484 444.623 619.215 443.917 620.953H443.959ZM431.145 622.254C431.211 621.218 431.211 620.18 431.145 619.144C430.948 617.731 431.838 615.258 429.733 615.102C427.628 614.947 426.808 617.039 426.568 618.989C426.455 619.893 426.681 620.826 426.653 621.815C426.653 624.543 426.017 628.571 429.478 628.416C432.615 628.189 430.298 624.091 431.103 622.254H431.145ZM466.238 649.756C465.63 647.863 467.651 643.453 463.652 643.594C460.29 643.708 462.409 647.834 461.901 650.11C461.668 651.257 461.668 652.439 461.901 653.586C461.934 653.938 462.037 654.28 462.205 654.591C462.372 654.902 462.6 655.176 462.876 655.398C463.151 655.619 463.468 655.783 463.807 655.88C464.147 655.976 464.503 656.004 464.853 655.961C466.266 655.749 466.153 654.223 466.266 653.134C466.294 652.159 466.195 651.212 466.195 649.756H466.238ZM406.649 705.13C406.077 701.613 404.982 698.202 403.399 695.01C403.074 698.204 403.004 701.413 402.891 704.621C402.829 705.77 402.853 706.923 402.961 708.069C403.13 708.671 403.382 709.247 403.71 709.779C404.321 709.54 404.908 709.242 405.462 708.889C405.982 708.43 406.365 707.835 406.567 707.171C406.769 706.508 406.782 705.801 406.606 705.13H406.649ZM480.845 623.413C478.642 623.625 479.108 625.391 479.235 626.564C479.447 628.642 478.076 631.793 481.467 632.217C483.572 632.472 483.346 629.97 483.614 628.472C483.847 627.431 483.69 626.34 483.171 625.407C482.653 624.474 481.81 623.764 480.803 623.413H480.845ZM383.508 614.933C383.706 612.106 383.183 610.325 380.259 610.608C379.284 610.707 377.306 610.495 378.097 612.021C379.097 613.795 380.563 615.261 382.336 616.261C383.423 616.968 383.395 615.357 383.466 614.947L383.508 614.933ZM382.265 627.257C380.626 628.472 378.719 629.758 378.295 631.765C377.942 633.433 379.849 632.896 380.824 632.91C383.452 632.91 383.649 631.058 383.522 629.122C383.452 628.303 383.72 627.2 382.223 627.327L382.265 627.257ZM407.228 684.453C406.861 682.602 407.807 680.51 405.942 679.747C404.812 679.28 404.53 680.793 404.855 681.626C405.42 683.351 405.194 685.357 406.677 686.757C406.846 685.895 407.058 685.032 407.186 684.467L407.228 684.453ZM277.751 543.943C277.04 543.629 276.302 543.378 275.547 543.194C274.982 543.095 274.699 543.674 275.123 543.943C275.855 544.422 276.662 544.776 277.511 544.988C278.076 545.144 278.259 544.706 277.751 543.943ZM447.463 643.326C447.237 643.609 446.784 644.004 446.855 644.146C446.926 644.287 447.42 644.654 447.731 644.909L448.409 644.033C448.098 643.821 447.788 643.58 447.463 643.354V643.326ZM447.618 610.82L446.77 611.484C447.039 611.767 447.265 612.177 447.604 612.29C447.943 612.403 448.112 611.88 448.381 611.64L447.618 610.82Z" fill="url(#paint1_linear_47_142)" fill-opacity="0.1"/>
    </g>
    <path d="M-55.0016 614.987C-98.0984 649.562 -62.1763 686.787 -63.4722 734.619C-64.7681 782.451 -44.1693 833.762 -3.37866 884.311C37.412 934.86 97.2233 983.195 171.112 1025.32C245.001 1067.45 330.844 1102.16 421.549 1126.58C512.253 1151 605.214 1164.44 692.746 1165.77C780.279 1167.11 859.87 1156.3 924.943 1134.26C990.015 1112.21 1038.7 1079.56 1066.97 1038.99C1095.24 998.42 1047.06 984.626 1032.31 934.474C1032.31 934.474 745.752 883.512 527.406 824.176C283.131 757.794 -55.0016 614.987 -55.0016 614.987Z" fill="url(#paint2_linear_47_142)"/>
    <path d="M1343.2 936.543C1382.96 982.949 1426.17 950.773 1481.45 956.776C1536.73 962.78 1596.15 947.28 1654.78 911.557C1713.42 875.835 1769.59 820.916 1818.65 751.34C1867.71 681.764 1908.26 599.528 1936.94 511.43C1965.62 423.331 1981.61 331.9 1983.59 244.693C1985.56 157.486 1973.47 77.0069 1948.31 9.90785C1923.15 -57.1912 1885.64 -108.983 1838.89 -141.188C1792.14 -173.393 1775.95 -126.679 1717.91 -116.893C1717.91 -116.893 1657.58 164.008 1587.9 376.027C1509.96 613.223 1343.2 936.543 1343.2 936.543Z" fill="url(#paint3_linear_47_142)"/>
    <path d="M819.965 -4.57163C825.275 -59.1435 780.374 -71.403 751.857 -113.957C723.34 -156.511 679.229 -189.741 623.169 -210.9C567.109 -232.06 500.711 -240.541 429.462 -235.642C358.213 -230.744 284.16 -212.607 213.422 -182.731C142.684 -152.854 77.2927 -112.096 22.6536 -63.8249C-31.9856 -15.5538 -74.304 38.844 -100.804 94.8726C-127.304 150.901 -137.225 206.952 -129.746 258.392C-122.268 309.831 -84.1899 294.68 -44.3807 330.196C-44.3807 330.196 163.044 212.908 333.661 141.467C524.54 61.5415 819.965 -4.57163 819.965 -4.57163Z" fill="url(#paint4_linear_47_142)"/>
    <defs>
        <linearGradient id="paint0_linear_47_142" x1="864" y1="0" x2="864" y2="861" gradientUnits="userSpaceOnUse">
            <stop stop-color="#9FBBD9"/>
            <stop offset="1" stop-color="#467CB6"/>
        </linearGradient>
        <linearGradient id="paint1_linear_47_142" x1="-2627.51" y1="2037.48" x2="17503.3" y2="65736.2" gradientUnits="userSpaceOnUse">
            <stop stop-color="#005DB9"/>
            <stop offset="1" stop-color="#F8B80C"/>
        </linearGradient>
        <linearGradient id="paint2_linear_47_142" x1="-17.0291" y1="694.288" x2="947.305" y2="823.472" gradientUnits="userSpaceOnUse">
            <stop stop-color="#3269A5"/>
            <stop offset="0.972911" stop-color="#598DC6"/>
        </linearGradient>
        <linearGradient id="paint3_linear_47_142" x1="1499.1" y1="775.823" x2="1746.38" y2="-128.318" gradientUnits="userSpaceOnUse">
            <stop stop-color="#447AB5"/>
            <stop offset="0.972911" stop-color="#A0BCDA"/>
        </linearGradient>
        <linearGradient id="paint4_linear_47_142" x1="1047.59" y1="218.464" x2="1112.44" y2="-132.454" gradientUnits="userSpaceOnUse">
            <stop stop-color="#A0BCDA"/>
            <stop offset="0.972911" stop-color="#295B8C"/>
        </linearGradient>
        <clipPath id="clip0_47_142">
            <rect width="669" height="669" fill="white" transform="translate(58 277)"/>
        </clipPath>
    </defs>
</svg>
