<svg width="1728" height="353" viewBox="0 0 1728 353" fill="none" xmlns="http://www.w3.org/2000/svg">
    <rect width="1728" height="353" fill="#F2F5F9"/>
    <path opacity="0.92" fill-rule="evenodd" clip-rule="evenodd" d="M714.173 -155.77C722.981 -154.856 731.79 -153.942 740.599 -153.027C867.644 -106.262 994.637 -58.6642 1121.58 -10.2327C1134.76 -5.70938 1148.29 -3.49506 1162.17 -3.58977C1167.85 -5.64164 1171.51 -9.71562 1173.15 -15.811C1188.66 -20.4617 1196.17 -14.8236 1195.68 1.1033C1245.65 -5.82477 1295.7 -12.3705 1345.84 -18.5338C1359.96 -18.99 1373.45 -16.375 1386.31 -10.6892C1386.06 -8.28581 1385.81 -5.88239 1385.56 -3.47898C1338.35 3.27402 1290.95 7.66571 1243.35 9.69607C1239.32 11.373 1235.15 12.5596 1230.84 13.256C1235.56 14.5558 1240.28 15.8559 1245.01 17.1557C1418.25 39.8909 1591.73 60.7336 1765.45 79.6837C1764.78 84.6969 1762 88.0526 1757.12 89.7509C1620.38 76.7609 1483.97 61.386 1347.89 43.626C1344.25 44.4482 1340.57 44.8755 1336.83 44.9072C1304.99 35.0693 1272.36 29.658 1238.95 28.674C1288.11 43.8556 1337.69 57.5046 1387.68 69.621C1387.43 72.0244 1387.18 74.4278 1386.93 76.8312C1369.26 75.4002 1351.68 73.171 1334.21 70.1431C1291.06 57.4408 1247.81 45.2582 1204.45 33.5946C1204.43 42.0016 1200.61 47.6777 1192.97 50.6227C1207.28 60.4662 1222.63 68.5378 1239.02 74.8376C1247.68 83.55 1256.99 91.3988 1266.93 98.3839C1266.62 110.381 1267.42 122.206 1269.32 133.857C1272.79 135.433 1276.27 137.008 1279.75 138.584C1284.4 136.385 1288.38 133.154 1291.69 128.891C1294.08 127.967 1296.53 127.816 1299.02 128.438C1298.04 133.989 1295.9 139.03 1292.59 143.561C1310.58 153.812 1329.01 163.419 1347.88 172.379C1354.09 165.934 1360.76 160.148 1367.89 155.022C1369.01 155.947 1370.13 156.874 1371.24 157.799C1367.54 164.443 1363.63 170.922 1359.51 177.231C1399 197.48 1438.62 217.383 1478.37 236.94C1497.31 216.947 1516.01 196.62 1534.48 175.959C1545.97 179.336 1557.86 181.784 1570.14 183.305C1565.73 159.069 1563.42 134.536 1563.21 109.706C1564.05 96.5365 1570.65 87.5046 1583.02 82.6107C1581.4 115.661 1579.99 148.715 1578.8 181.774C1582.68 184.791 1587.04 185.649 1591.89 184.347C1601.87 175.991 1612.99 170.262 1625.24 167.16C1625.33 175.501 1622.94 182.945 1618.06 189.494C1606.3 191.844 1594.68 194.685 1583.18 198.02C1579.74 201.088 1576.56 204.402 1573.65 207.962C1563.88 235.48 1553.36 262.728 1542.1 289.713C1537.45 291.832 1534.81 289.937 1534.19 284.033C1533.05 276.8 1534.16 270.03 1537.51 263.729C1530.33 262.107 1523.25 260.157 1516.26 257.879C1512.58 257.567 1509.61 258.88 1507.36 261.813C1500.02 278.851 1488.22 283.296 1471.98 275.146C1464.58 292.651 1459.06 310.704 1455.43 329.302C1453.03 329.053 1450.62 328.803 1448.22 328.554C1445.4 306.813 1439.87 285.993 1431.64 266.099C1414.8 260.982 1397.91 255.991 1380.98 251.124C1378.69 251.149 1376.61 251.741 1374.73 252.904C1373.62 257.232 1371.24 260.629 1367.6 263.096C1353.73 262.574 1340.24 259.959 1327.13 255.251C1326.88 257.655 1326.63 260.058 1326.38 262.461C1344.02 262.992 1360.54 267.542 1375.96 276.11C1378.38 277.999 1379.74 280.569 1380.02 283.819C1378.72 291.774 1375.21 298.292 1369.49 303.376C1354.53 297.516 1339.12 293.89 1323.27 292.504C1346.83 304.762 1348.54 319.515 1328.38 336.763C1311.94 336.294 1296.61 331.871 1282.41 323.488C1281.77 330.088 1282.71 336.664 1285.22 343.214C1295.83 334.598 1305.44 335.596 1314.05 346.207C1317.17 368.409 1310.05 386.293 1292.7 399.864C1287.09 399.282 1281.48 398.7 1275.88 398.119C1273.76 395.025 1272.09 391.613 1270.87 387.881C1270.75 378.273 1269.7 368.85 1267.73 359.619C1249.51 348.01 1231.29 336.401 1213.07 324.793C1201.15 321.284 1189.42 321.28 1177.86 324.782C1170.32 321.749 1163.45 317.797 1157.24 312.924C1120.08 317.381 1082.85 321.208 1045.56 324.409C1044.38 335.845 1039.38 345.043 1030.56 352.003C1019.65 354.218 1011.53 350.543 1006.2 340.973C1003.87 345.069 1000.7 348.384 996.673 350.915C984.567 348.378 972.639 346.331 960.888 344.771C949.3 328.166 951.237 313.386 966.704 300.433C969.073 288.792 972.64 277.825 977.404 267.533C971.269 272.697 964.213 274.394 956.236 272.623C933.847 267.246 911.881 260.512 890.342 252.422C880.222 244.008 878.018 234.062 883.726 222.583C863.228 204.162 857.024 182.058 865.113 156.274C882.063 132.662 900.932 110.734 921.721 90.4861C929.684 86.714 938.024 84.3405 946.743 83.3663C967.075 82.9616 987.385 82.2357 1007.68 81.1889C1000.96 65.6672 1004.65 53.4989 1018.75 44.6842C1042.21 44.1964 1065.68 44.2038 1089.17 44.706C1095.02 42.8844 1099.44 39.2944 1102.43 33.9359C1104.91 33.3842 1107.4 32.8323 1109.88 32.2806C1122.73 33.6114 1135.35 32.897 1147.74 30.1375C1149.91 31.3475 1151.35 33.116 1152.05 35.4431C1153.64 31.6389 1154.46 27.6745 1154.5 23.5507C1151.29 23.2183 1148.09 22.8856 1144.89 22.5532C1145.14 20.1498 1145.39 17.7464 1145.64 15.3429C972.249 -13.9913 798.842 -43.3291 625.414 -72.6703C625.663 -75.0737 625.913 -77.4771 626.162 -79.8805C655.187 -79.5512 684.057 -76.9593 712.772 -72.1045C840.805 -50.0067 968.901 -28.6118 1097.06 -7.91969C970.198 -55.4693 843.163 -102.667 715.951 -149.512C714.311 -151.312 713.718 -153.398 714.173 -155.77ZM1161.95 21.8955C1164.36 22.1448 1166.76 22.3942 1169.16 22.6436C1163.07 37.2282 1160.66 36.9789 1161.95 21.8955ZM1111.41 40.9419C1118.07 41.3372 1122.58 44.64 1124.95 50.8502C1117.82 52.2318 1111.5 50.7659 1105.98 46.4517C1108.28 44.9691 1110.08 43.1324 1111.41 40.9419ZM1200.02 123.02C1190.57 112.23 1186.62 99.6724 1188.15 85.3475C1195.75 96.7024 1199.71 109.26 1200.02 123.02ZM923.251 99.1474C924.54 99.4271 925.257 100.311 925.403 101.8C916.988 111.944 909.018 122.454 901.49 133.328C896.302 139.329 890.005 141.511 882.599 139.87C894.275 124.174 907.825 110.601 923.251 99.1474ZM937.665 100.644C945.124 100.647 952.248 102.196 959.036 105.292C952.36 116.646 945.907 128.122 939.679 139.722C936.056 143.014 931.802 145.002 926.918 145.685C919.58 143.213 912.098 141.222 904.47 139.711C915.84 126.862 926.905 113.838 937.665 100.644ZM968.646 106.289C980.491 108.511 991.37 112.879 1001.28 119.394C995.318 131.641 989.584 144.001 984.076 156.477C982.823 160.428 980.172 162.582 976.121 162.939C964.506 159.64 954.153 154.112 945.061 146.354C952.711 132.844 960.571 119.49 968.646 106.289ZM1010.89 120.392C1021.18 122.954 1030.42 127.556 1038.6 134.2C1033 150.478 1026.49 166.402 1019.07 181.973C1009.35 176.733 999.273 172.446 988.835 169.118C994.81 152.21 1002.16 135.969 1010.89 120.392ZM1050.48 136.648C1058.79 137.585 1066.63 140.02 1074.01 143.949C1074.06 161.71 1072.23 179.337 1068.52 196.824C1056.66 195.535 1046.18 191.206 1037.09 183.844C1040.27 167.793 1044.73 152.063 1050.48 136.648ZM1549.43 195.73C1556.1 195.663 1562.43 197.128 1568.4 200.129C1558.57 218.132 1550.17 236.695 1543.19 255.815C1533.57 254.462 1524.04 252.664 1514.61 250.419C1521.19 233.721 1528.94 217.52 1537.87 201.818C1541.57 199.091 1545.42 197.061 1549.43 195.73ZM903.597 148.123C913.237 149.949 922.68 152.548 931.926 155.922C928.702 164.999 925.343 173.964 921.85 182.813C910.341 183.839 899.655 181.515 889.792 175.842C890.28 164.292 894.881 155.053 903.597 148.123ZM886.281 151.184C880.167 168.988 879.94 186.778 885.597 204.558C871.582 198.592 865.414 187.831 867.095 172.271C867.444 159.269 873.841 152.242 886.281 151.184ZM938.884 159.074C975.816 164.518 983.637 182.741 962.348 213.74C955.117 218.533 947.785 218.986 940.353 215.1C936.766 208.643 933.828 201.861 931.538 194.751C932.566 182.624 935.015 170.731 938.884 159.074ZM1121.46 178.027C1124.25 180.779 1125.48 184.551 1125.15 189.341C1123.97 192.863 1122.79 196.385 1121.62 199.907C1116.8 192.901 1116.75 185.608 1121.46 178.027ZM1144.99 185.328C1146.44 185.748 1147.56 186.673 1148.34 188.105C1149.68 196.032 1148.13 203.16 1143.69 209.486C1137.23 201.161 1137.67 193.109 1144.99 185.328ZM1177.62 198.433C1186.1 206.355 1185.66 214.409 1176.33 222.591C1173.08 214.264 1173.51 206.212 1177.62 198.433ZM1212.91 209.384C1214.44 214.369 1215.5 219.744 1216.09 225.505C1215.5 228.553 1213.69 230.388 1210.66 231.014C1205.35 223.284 1206.1 216.074 1212.91 209.384ZM1233.53 221.242C1233.81 219.952 1234.7 219.234 1236.19 219.088C1238.57 221.437 1238.72 223.881 1236.64 226.423C1236.2 224.152 1235.16 222.426 1233.53 221.242ZM892.398 185.829C902.825 188.355 912.985 191.839 922.88 196.282C925.768 204.467 928.983 212.492 932.522 220.361C921.123 219.384 910.077 216.62 899.388 212.063C891.9 204.126 889.571 195.382 892.398 185.829ZM1263.77 234.097C1266.18 234.139 1268.1 235.149 1269.52 237.124C1271 241.551 1270.18 245.516 1267.07 249.017C1263.17 244.911 1262.07 239.939 1263.77 234.097ZM1444.35 272.278C1448.83 270.408 1453.72 270.104 1459.01 271.371C1458.6 282.104 1456.32 292.396 1452.17 302.241C1450.25 291.803 1447.65 281.815 1444.35 272.278ZM1253.07 266.997C1242.67 266.193 1240.29 261.898 1245.91 254.107C1250.84 257.022 1253.23 261.32 1253.07 266.997ZM1295.81 276.293C1283.97 275.88 1282.31 272.469 1290.8 266.056C1295.52 267.838 1297.19 271.249 1295.81 276.293ZM1325.14 274.478C1326.68 277.143 1327.99 280.114 1329.07 283.389C1328.23 283.707 1327.38 284.023 1326.54 284.341C1324.61 281.252 1324.14 277.965 1325.14 274.478ZM1009.84 270.9C1020.96 273.359 1032.01 276.126 1042.97 279.198C1041.87 285.681 1040 291.966 1037.37 298.051C1023.86 287.714 1013.12 289.837 1005.14 304.423C999.068 300.554 992.663 299.889 985.923 302.428C986.511 293.35 989.026 284.705 993.472 276.489C998.983 274.07 1004.44 272.207 1009.84 270.9ZM1056.89 285.501C1073.68 288.974 1090.2 293.524 1106.46 299.15C1084.94 304.058 1063.41 308.708 1041.88 313.095C1044.38 302.464 1049.39 293.266 1056.89 285.501ZM1274.16 344.495C1267.15 339.035 1260.48 333.079 1254.16 326.629C1258.87 326.508 1263.4 325.763 1267.75 324.395C1270.6 330.937 1272.74 337.638 1274.16 344.495Z" fill="url(#paint0_linear_47_142)" fill-opacity="0.1"/>
    <defs>
        <linearGradient id="paint0_linear_47_142" x1="-1256.18" y1="1774.56" x2="28229.6" y2="112071" gradientUnits="userSpaceOnUse">
            <stop stop-color="#005DB9"/>
            <stop offset="1" stop-color="#F8B80C"/>
        </linearGradient>
    </defs>
</svg>
